<svg width="200" height="200" viewBox="0 0 200 200" fill="none" xmlns="http://www.w3.org/2000/svg">
<rect x="0.5" y="0.5" width="199" height="199" stroke="#461A46"/>
<path d="M1 1H199V199H1V1Z" fill="url(#paint0_radial_60_1501)" stroke="#461A46" stroke-width="2"/>
<path d="M126.375 82.5625C126.375 86.1458 125.562 89.375 123.938 92.25C122.354 95.125 120.229 97.6667 117.562 99.875C115.021 101.958 112.146 103.854 108.938 105.562C105.771 107.271 102.688 108.792 99.6875 110.125L99.75 117.062H80.1875V100.75C82.8125 99.875 85.8333 98.8125 89.25 97.5625C92.7083 96.3125 95.375 95.125 97.25 94C100 92.3333 101.958 90.75 103.125 89.25C104.292 87.75 104.875 85.9167 104.875 83.75C104.875 81.25 104.083 79.3542 102.5 78.0625C100.917 76.7292 98.8542 75.7708 96.3125 75.1875C93.7708 74.6458 90.625 74.3333 86.875 74.25C83.125 74.1667 78.8333 74.125 74 74.125L76.5625 58.0625C77.4375 58.0625 78.9375 58.0625 81.0625 58.0625C83.2292 58.0208 85.2708 58 87.1875 58C91.8542 58 96.0417 58.2917 99.75 58.875C103.458 59.4167 106.917 60.3333 110.125 61.625C115.125 63.5833 119.083 66.3125 122 69.8125C124.917 73.3125 126.375 77.5625 126.375 82.5625ZM100.875 142.375H79.75L79.75 124.375H100.875V142.375Z" fill="#461A46"/>
<defs>
<radialGradient id="paint0_radial_60_1501" cx="0" cy="0" r="1" gradientUnits="userSpaceOnUse" gradientTransform="translate(98.6211 100) rotate(-180) scale(98.6211 169.56)">
<stop stop-color="#8F438F"/>
<stop offset="1" stop-color="#6D326D"/>
</radialGradient>
</defs>
</svg>
