<svg width="331" height="312" viewBox="0 0 331 312" fill="none" xmlns="http://www.w3.org/2000/svg">
<path d="M56.2466 87.4428C56.7575 94.6456 59.201 101.327 63.1723 107.367L31.4767 109.615C15.5534 110.744 3.56051 124.568 4.6898 140.491L11.9394 242.713C13.0687 258.636 26.8926 270.629 42.8158 269.499L299.68 251.283C315.603 250.153 327.596 236.329 326.467 220.406L319.217 118.185C318.088 102.262 304.264 90.2686 288.34 91.3979L256.645 93.6458C259.724 87.1057 261.2 80.1464 260.689 72.9436C259.409 54.8939 245.993 40.1192 226.811 30.5031C207.541 20.8425 181.777 15.9768 154.053 17.943C126.329 19.9092 101.51 28.3623 83.796 40.6459C66.1636 52.8728 54.9666 69.3931 56.2466 87.4428Z" fill="#44795D" stroke="#FFC34E" stroke-width="7.88293"/>
<ellipse cx="158.7" cy="83.4697" rx="89.3398" ry="51.239" transform="rotate(-4.05667 158.7 83.4697)" fill="#594080"/>
<rect x="109.951" y="64.6758" width="95.909" height="51.2455" rx="6.11184" transform="rotate(-4.05667 109.951 64.6758)" fill="#DA5E2F"/>
<rect x="108.197" y="63.1538" width="99.1935" height="54.53" rx="7.75412" transform="rotate(-4.05667 108.197 63.1538)" fill="#B75B36" stroke="#FFC34E" stroke-width="3.28455"/>
<rect x="113.873" y="64.2573" width="86.7122" height="48.6114" rx="6.11184" transform="rotate(-4.05667 113.873 64.2573)" fill="#E76B3C"/>
<rect x="115.267" y="83.9155" width="86.7122" height="14.452" rx="6.11184" transform="rotate(-4.05667 115.267 83.9155)" fill="#F77847"/>
<rect x="109.419" y="57.1719" width="95.909" height="12.2237" transform="rotate(-4.05667 109.419 57.1719)" fill="#6D326D"/>
<path d="M109.086 52.4826C109.031 51.7056 109.616 51.031 110.393 50.9759L123.993 50.0114C124.77 49.9563 125.445 50.5415 125.5 51.3185L125.833 56.0081L109.419 57.1722L109.086 52.4826Z" fill="#7D367D"/>
<path d="M110.763 49.5355C110.689 48.4995 111.47 47.6001 112.506 47.5266L121.416 46.8947C122.452 46.8212 123.351 47.6015 123.425 48.6375L123.525 50.0444L110.863 50.9424L110.763 49.5355Z" fill="#B65AB6"/>
<path d="M109.419 57.1722L205.088 50.3874L205.952 62.5804L110.284 69.3653L109.419 57.1722Z" fill="#6D326D"/>
<path d="M159.971 45.5746C159.915 44.7976 160.501 44.123 161.278 44.0679L203.015 41.1079C203.792 41.0527 204.467 41.638 204.522 42.415L205.088 50.3874L160.536 53.547L159.971 45.5746Z" fill="#5B265B"/>
<path d="M109.086 52.4826C109.031 51.7056 109.616 51.031 110.393 50.9759L123.993 50.0114C124.77 49.9563 125.445 50.5415 125.5 51.3185L125.833 56.0082L109.419 57.1722L109.086 52.4826Z" fill="#7D367D"/>
<path d="M110.763 49.5358C110.689 48.4998 111.469 47.6004 112.505 47.5269L121.416 46.895C122.452 46.8215 123.351 47.6018 123.425 48.6378L123.524 50.0447L110.862 50.9427L110.763 49.5358Z" fill="#B65AB6"/>
<path d="M126.84 50.2808C126.749 48.9858 127.724 47.8616 129.019 47.7697L140.743 46.9382C142.038 46.8464 143.162 47.8217 143.254 49.1168L143.653 54.7443L127.239 55.9084L126.84 50.2808Z" fill="#7D367D"/>
<path d="M206.609 48.633L206.16 42.2988C206.041 40.617 204.581 39.3504 202.899 39.4697L161.161 42.4298C159.48 42.549 158.213 44.009 158.332 45.6908L158.782 52.025L145.175 52.99L144.892 49.0006C144.736 46.8008 142.827 45.1441 140.627 45.3001L128.903 46.1316C127.305 46.2449 125.994 47.2832 125.455 48.6859C125.329 48.6228 125.198 48.5682 125.063 48.5229L125.063 48.5216C124.925 46.5809 123.24 45.1192 121.3 45.2568L112.389 45.8887C110.448 46.0264 108.987 47.7112 109.124 49.652L109.124 49.6532C108.056 50.1898 107.358 51.3313 107.448 52.5988L107.665 55.6503L107.781 57.2884L107.897 58.9266L108.645 69.4815L108.762 71.1197L110.4 71.0035L206.068 64.2186L207.707 64.1024L207.59 62.4642L206.842 51.9093L206.726 50.2712L206.609 48.633Z" stroke="#FFC34E" stroke-width="3.28455"/>
<rect x="182.051" y="45.9214" width="19.0504" height="11.1675" rx="2.83666" transform="rotate(-4.05667 182.051 45.9214)" fill="#E05F2D" stroke="#A24F2E" stroke-width="3.28455"/>
<circle cx="166.471" cy="81.6008" r="23.9772" transform="rotate(-4.05667 166.471 81.6008)" fill="#4C1F4C" stroke="#FFC34E" stroke-width="3.28455"/>
<circle cx="166.472" cy="81.6014" r="17.9477" transform="rotate(-4.05667 166.472 81.6014)" fill="#341834"/>
<circle cx="166.684" cy="81.7857" r="13.3611" transform="rotate(-4.05667 166.684 81.7857)" fill="#6D326D"/>
<ellipse cx="165.078" cy="81.5458" rx="8.62619" ry="9.8585" transform="rotate(-4.05667 165.078 81.5458)" fill="#8F438F"/>
<circle cx="164.729" cy="76.6288" r="3.69694" transform="rotate(-4.05667 164.729 76.6288)" fill="#D073D0" fill-opacity="0.55"/>
<circle cx="196.901" cy="64.9545" r="5.58374" transform="rotate(-4.05667 196.901 64.9545)" fill="#F3F1DD" stroke="#FFC34E" stroke-width="3.28455"/>
<path d="M109.43 57.3281L113.362 57.0493L114.198 68.8441L110.266 69.1229L109.43 57.3281Z" fill="#8F438F"/>
<rect x="198.314" y="47.7319" width="2.62764" height="7.88293" rx="1.31382" transform="rotate(85.9433 198.314 47.7319)" fill="#F26F3C"/>
<circle cx="229.511" cy="88.3258" r="5.9122" transform="rotate(-4.05667 229.511 88.3258)" fill="#D84E60"/>
<circle cx="83.8655" cy="77.5809" r="4.59837" transform="rotate(-4.05667 83.8655 77.5809)" fill="#D84E60"/>
<circle cx="72.1724" cy="247.002" r="4.59837" transform="rotate(-4.05667 72.1724 247.002)" fill="#D84E60"/>
<circle cx="28.3025" cy="185.574" r="4.59837" transform="rotate(-4.05667 28.3025 185.574)" fill="#D84E60"/>
<circle cx="207.329" cy="174.854" r="2.62764" transform="rotate(-4.05667 207.329 174.854)" fill="#D84E60"/>
<circle cx="100.925" cy="123.129" r="2.62764" transform="rotate(-4.05667 100.925 123.129)" fill="#D84E60"/>
<circle cx="129.831" cy="159.276" r="1.31382" transform="rotate(-4.05667 129.831 159.276)" fill="#D84E60"/>
<circle cx="216.438" cy="117.571" r="1.31382" transform="rotate(-4.05667 216.438 117.571)" fill="#D84E60"/>
<circle cx="33.5678" cy="231.958" r="1.31382" transform="rotate(-4.05667 33.5678 231.958)" fill="#D84E60"/>
<circle cx="310.945" cy="187.262" r="1.31382" transform="rotate(-4.05667 310.945 187.262)" fill="#D84E60"/>
<circle cx="145.242" cy="227.99" r="2.62764" transform="rotate(-4.05667 145.242 227.99)" fill="#D84E60"/>
<circle cx="307.98" cy="126.884" r="2.62764" transform="rotate(-4.05667 307.98 126.884)" fill="#D84E60"/>
<circle cx="262.199" cy="233.525" r="3.28455" transform="rotate(-4.05667 262.199 233.525)" fill="#D84E60"/>
<path d="M289.772 37.2943L296.099 51.2663L310.824 55.5581L296.852 61.8851L292.56 76.6102L286.233 62.6382L271.508 58.3464L285.48 52.0194L289.772 37.2943Z" fill="#FF9D00"/>
<path d="M23.7344 56.162L30.0614 70.134L44.7865 74.4258L30.8145 80.7528L26.5227 95.4779L20.1956 81.5059L5.47057 77.2141L19.4425 70.8871L23.7344 56.162Z" fill="#FF9D00"/>
<rect x="177.611" y="0.245117" width="77.2705" height="310.52" transform="rotate(27.6126 177.611 0.245117)" fill="url(#paint0_linear_45_1060)" fill-opacity="0.22"/>
<mask id="path-37-outside-1_45_1060" maskUnits="userSpaceOnUse" x="20.1755" y="113.487" width="271.708" height="94.698" fill="black">
<rect fill="white" x="20.1755" y="113.487" width="271.708" height="94.698"/>
<path d="M46.0101 163.887C51.2213 162.484 56.4538 160.343 61.9107 160.325C63.5304 160.284 65.1237 160.908 66.1714 162.162C68.3455 164.737 67.3477 168.348 64.3434 169.667C57.1184 172.835 49.4271 175.667 41.9247 178.043C41.3886 180.884 41.0149 183.934 41.805 186.755C44.0759 194.855 66.8506 176.939 70.6206 174.975C72.1831 174.127 73.8711 174.007 75.6059 174.548C78.9235 175.566 80.421 179.001 79.3971 182.245C75.6693 194.163 35.8869 207.311 32.6937 188.286C32.1764 185.151 32.2461 181.975 32.0223 178.819C29.4703 177.156 28.0353 174.602 30.2802 171.935C31.9115 169.976 34.5956 169.343 35.5299 166.916C36.8421 163.578 39.1115 153.976 44.0327 155.766C47.9687 157.183 46.5358 160.899 46.0101 163.887ZM57.2975 150.4C51.6205 150.433 46.2157 151.185 40.7266 152.829C39.5731 153.205 38.3989 153.289 37.2247 153.372C32.2342 153.726 32.6563 148.238 37.4334 144.875C45.0212 139.543 54.3422 137.849 63.4165 136.837C76.218 135.339 80.9665 147.172 72.5938 149.757C68.4101 151.087 61.423 150.328 57.2975 150.4ZM109.818 152.87L109.268 152.393C104.576 152.8 87.9915 171.678 99.5646 173.66C105.089 174.596 111.039 174.248 115.365 171.802C117.069 170.87 119.04 170.582 120.926 172.219C122.813 173.855 123.105 175.9 122.045 177.598C116.222 187.009 91.5469 189.57 84.3095 175.922C76.2918 160.633 100.092 135.342 113.357 140.376C125.789 145.1 117.759 163.961 111.036 158.611C108.925 156.917 109.439 154.815 109.818 152.87ZM134.541 185.489C127.789 185.968 127.493 179.719 127.003 174.886C126.174 166.315 126.519 157.661 127.682 149.096C128.523 143.283 130.687 135.311 135.506 131.503C140.535 127.532 146.624 132.263 144.121 136.497C141.818 140.422 139.11 146.958 139.979 148.814C152.655 136.187 162.161 143.331 162.248 158.077C162.318 164.268 161.827 170.867 162.831 175.664C163.171 177.336 162.85 179.055 161.534 180.255C160.144 181.46 157.754 182.072 156.082 181.379C150.836 179.17 150.793 170.248 150.885 165.3C151.29 141.89 140.612 152.531 138.344 168.402C137.55 173.843 143.714 184.838 134.541 185.489ZM198.518 154.767C199.35 166.509 185.82 189.965 172.159 179.354C168.334 176.38 166.58 172.448 166.462 167.662C166.287 162.069 168.239 156.324 171.848 152.085C173.007 150.749 174.654 150.043 175.739 148.712C176.898 147.375 177.214 145.583 178.294 144.179C182.286 139.101 190.961 139.74 194.979 144.397C197.468 147.244 198.257 151.098 198.518 154.767ZM180.289 170.222C184.974 172.84 193.45 152.987 185.74 151.395C180.724 150.35 176.087 166.094 180.289 170.222ZM212.818 169.98C220.879 173.391 213.315 182.188 207.19 177.976C198.816 172.227 201.272 146.532 208.522 144.764C217.948 142.473 213.243 159.328 212.842 164.077C212.689 166.08 212.825 167.988 212.818 169.98ZM214.808 133.549C215.271 140.081 206.101 142.87 205.816 136.769C205.449 127.427 214.412 127.972 214.808 133.549ZM235.614 151.915L235.037 152.103C232.383 155.242 229.907 158.81 229.171 162.993C228.535 166.505 227.468 172.26 222.604 171.277C220.361 170.846 219.046 168.948 218.963 166.741C218.861 162.175 221.093 153.092 221.683 147.887C221.872 146.399 222.492 144.732 224.164 144.392C226.707 143.843 227.036 145.369 228.466 146.816C244.907 132.152 246.211 155.736 247.343 166.499C247.541 168.255 247.215 169.901 245.585 170.828C243.954 171.755 241.616 172.068 240.138 170.993C237.031 168.779 236.734 164.596 236.406 161.005C236.119 158.001 236.115 154.83 235.614 151.915ZM272.436 155.499L272.19 155.148C261.81 166.874 245.872 162.62 250.461 147.248C252.719 139.564 260.029 133.44 268.322 132.852C271.771 132.607 273.511 134.254 276.493 134.706C280.964 135.348 279.935 139.552 280.987 142.944C283.274 150.231 284.78 156.91 283.555 164.594C282.577 170.564 280.624 176.309 276.051 180.468C269.406 186.619 261.019 187.951 254.328 180.976C251.221 177.73 247.53 169.362 253.324 166.812C257.759 164.875 259.828 169.08 262.164 171.865C269.498 180.638 276.511 163.029 272.436 155.499ZM262.078 144.654C258.066 149.437 260.987 156.311 266.903 150.286C273.716 143.386 267.638 137.769 262.078 144.654Z"/>
</mask>
<path d="M46.0101 163.887C51.2213 162.484 56.4538 160.343 61.9107 160.325C63.5304 160.284 65.1237 160.908 66.1714 162.162C68.3455 164.737 67.3477 168.348 64.3434 169.667C57.1184 172.835 49.4271 175.667 41.9247 178.043C41.3886 180.884 41.0149 183.934 41.805 186.755C44.0759 194.855 66.8506 176.939 70.6206 174.975C72.1831 174.127 73.8711 174.007 75.6059 174.548C78.9235 175.566 80.421 179.001 79.3971 182.245C75.6693 194.163 35.8869 207.311 32.6937 188.286C32.1764 185.151 32.2461 181.975 32.0223 178.819C29.4703 177.156 28.0353 174.602 30.2802 171.935C31.9115 169.976 34.5956 169.343 35.5299 166.916C36.8421 163.578 39.1115 153.976 44.0327 155.766C47.9687 157.183 46.5358 160.899 46.0101 163.887ZM57.2975 150.4C51.6205 150.433 46.2157 151.185 40.7266 152.829C39.5731 153.205 38.3989 153.289 37.2247 153.372C32.2342 153.726 32.6563 148.238 37.4334 144.875C45.0212 139.543 54.3422 137.849 63.4165 136.837C76.218 135.339 80.9665 147.172 72.5938 149.757C68.4101 151.087 61.423 150.328 57.2975 150.4ZM109.818 152.87L109.268 152.393C104.576 152.8 87.9915 171.678 99.5646 173.66C105.089 174.596 111.039 174.248 115.365 171.802C117.069 170.87 119.04 170.582 120.926 172.219C122.813 173.855 123.105 175.9 122.045 177.598C116.222 187.009 91.5469 189.57 84.3095 175.922C76.2918 160.633 100.092 135.342 113.357 140.376C125.789 145.1 117.759 163.961 111.036 158.611C108.925 156.917 109.439 154.815 109.818 152.87ZM134.541 185.489C127.789 185.968 127.493 179.719 127.003 174.886C126.174 166.315 126.519 157.661 127.682 149.096C128.523 143.283 130.687 135.311 135.506 131.503C140.535 127.532 146.624 132.263 144.121 136.497C141.818 140.422 139.11 146.958 139.979 148.814C152.655 136.187 162.161 143.331 162.248 158.077C162.318 164.268 161.827 170.867 162.831 175.664C163.171 177.336 162.85 179.055 161.534 180.255C160.144 181.46 157.754 182.072 156.082 181.379C150.836 179.17 150.793 170.248 150.885 165.3C151.29 141.89 140.612 152.531 138.344 168.402C137.55 173.843 143.714 184.838 134.541 185.489ZM198.518 154.767C199.35 166.509 185.82 189.965 172.159 179.354C168.334 176.38 166.58 172.448 166.462 167.662C166.287 162.069 168.239 156.324 171.848 152.085C173.007 150.749 174.654 150.043 175.739 148.712C176.898 147.375 177.214 145.583 178.294 144.179C182.286 139.101 190.961 139.74 194.979 144.397C197.468 147.244 198.257 151.098 198.518 154.767ZM180.289 170.222C184.974 172.84 193.45 152.987 185.74 151.395C180.724 150.35 176.087 166.094 180.289 170.222ZM212.818 169.98C220.879 173.391 213.315 182.188 207.19 177.976C198.816 172.227 201.272 146.532 208.522 144.764C217.948 142.473 213.243 159.328 212.842 164.077C212.689 166.08 212.825 167.988 212.818 169.98ZM214.808 133.549C215.271 140.081 206.101 142.87 205.816 136.769C205.449 127.427 214.412 127.972 214.808 133.549ZM235.614 151.915L235.037 152.103C232.383 155.242 229.907 158.81 229.171 162.993C228.535 166.505 227.468 172.26 222.604 171.277C220.361 170.846 219.046 168.948 218.963 166.741C218.861 162.175 221.093 153.092 221.683 147.887C221.872 146.399 222.492 144.732 224.164 144.392C226.707 143.843 227.036 145.369 228.466 146.816C244.907 132.152 246.211 155.736 247.343 166.499C247.541 168.255 247.215 169.901 245.585 170.828C243.954 171.755 241.616 172.068 240.138 170.993C237.031 168.779 236.734 164.596 236.406 161.005C236.119 158.001 236.115 154.83 235.614 151.915ZM272.436 155.499L272.19 155.148C261.81 166.874 245.872 162.62 250.461 147.248C252.719 139.564 260.029 133.44 268.322 132.852C271.771 132.607 273.511 134.254 276.493 134.706C280.964 135.348 279.935 139.552 280.987 142.944C283.274 150.231 284.78 156.91 283.555 164.594C282.577 170.564 280.624 176.309 276.051 180.468C269.406 186.619 261.019 187.951 254.328 180.976C251.221 177.73 247.53 169.362 253.324 166.812C257.759 164.875 259.828 169.08 262.164 171.865C269.498 180.638 276.511 163.029 272.436 155.499ZM262.078 144.654C258.066 149.437 260.987 156.311 266.903 150.286C273.716 143.386 267.638 137.769 262.078 144.654Z" fill="#892C89"/>
<path d="M46.0101 163.887L40.8343 162.976L39.4037 171.106L47.3756 168.961L46.0101 163.887ZM61.9107 160.325L61.9282 165.58L61.9861 165.58L62.044 165.578L61.9107 160.325ZM66.1714 162.162L62.1394 165.532L62.1477 165.542L62.156 165.552L66.1714 162.162ZM64.3434 169.667L66.4536 174.48L66.4567 174.479L64.3434 169.667ZM41.9247 178.043L40.338 173.033L37.3431 173.981L36.7606 177.068L41.9247 178.043ZM41.805 186.755L36.7445 188.173L36.7448 188.174L41.805 186.755ZM70.6206 174.975L73.0485 179.636L73.0885 179.615L73.1282 179.594L70.6206 174.975ZM75.6059 174.548L74.0419 179.565L74.0526 179.568L74.0634 179.572L75.6059 174.548ZM79.3971 182.245L74.3855 180.663L74.3815 180.676L79.3971 182.245ZM32.6937 188.286L27.5086 189.142L27.5098 189.149L27.5109 189.156L32.6937 188.286ZM32.0223 178.819L37.2644 178.447L37.0797 175.842L34.8915 174.416L32.0223 178.819ZM30.2802 171.935L34.3008 175.32L34.3101 175.309L34.3193 175.298L30.2802 171.935ZM35.5299 166.916L30.6389 164.994L30.6322 165.011L30.6256 165.028L35.5299 166.916ZM44.0327 155.766L42.2364 160.705L42.2443 160.707L42.2523 160.71L44.0327 155.766ZM57.2975 150.4L57.3288 155.655L57.3586 155.655L57.3883 155.654L57.2975 150.4ZM40.7266 152.829L39.2194 147.794L39.1567 147.813L39.0945 147.833L40.7266 152.829ZM37.4334 144.875L34.4117 140.575L34.4083 140.578L37.4334 144.875ZM63.4165 136.837L63.9991 142.059L64.0132 142.058L64.0272 142.056L63.4165 136.837ZM72.5938 149.757L71.0433 144.736L71.0228 144.742L71.0024 144.749L72.5938 149.757ZM47.3756 168.961C48.7748 168.585 50.1609 168.163 51.4556 167.769C52.778 167.366 54.011 166.991 55.2375 166.66C57.693 165.998 59.8608 165.587 61.9282 165.58L61.8931 155.07C58.5037 155.081 55.3268 155.75 52.499 156.513C51.0839 156.895 49.6905 157.319 48.3957 157.713C47.0731 158.116 45.8509 158.487 44.6446 158.812L47.3756 168.961ZM62.044 165.578C62.0905 165.577 62.1305 165.581 62.162 165.587C62.1935 165.593 62.2121 165.6 62.2186 165.602C62.2247 165.605 62.2172 165.602 62.2006 165.59C62.1833 165.578 62.1612 165.558 62.1394 165.532L70.2034 158.791C67.9984 156.153 64.788 154.995 61.7773 155.071L62.044 165.578ZM62.156 165.552C62.1723 165.571 62.1293 165.524 62.1029 165.409C62.078 165.3 62.0812 165.188 62.106 165.091C62.1592 164.881 62.2789 164.834 62.2302 164.856L66.4567 174.479C72.4487 171.847 74.7838 164.216 70.1868 158.771L62.156 165.552ZM62.2332 164.854C55.2016 167.937 47.6876 170.705 40.338 173.033L43.5114 183.053C51.1667 180.629 59.0353 177.733 66.4536 174.48L62.2332 164.854ZM36.7606 177.068C36.2088 179.992 35.6011 184.091 36.7445 188.173L46.8655 185.337C46.4286 183.778 46.5684 181.775 47.0888 179.017L36.7606 177.068ZM36.7448 188.174C37.477 190.785 39.3005 192.784 41.884 193.642C44.0622 194.366 46.2634 194.104 47.9 193.732C51.2337 192.975 54.9899 191.083 58.2723 189.194C61.6732 187.236 65.0776 184.974 67.7941 183.135C69.1904 182.189 70.3393 181.399 71.3185 180.743C71.7978 180.422 72.1938 180.162 72.5122 179.96C72.6702 179.86 72.7966 179.782 72.8951 179.724C72.9436 179.695 72.9812 179.673 73.0088 179.658C73.037 179.642 73.0495 179.635 73.0485 179.636L68.1927 170.314C66.8935 170.991 64.323 172.791 61.9 174.432C59.215 176.251 56.0769 178.33 53.029 180.084C49.8626 181.907 47.2637 183.098 45.5706 183.483C44.6938 183.682 44.7137 183.507 45.197 183.668C46.0856 183.963 46.7007 184.75 46.8652 185.336L36.7448 188.174ZM73.1282 179.594C73.287 179.507 73.3941 179.485 73.478 179.478C73.5697 179.471 73.748 179.473 74.0419 179.565L77.1699 169.531C74.1968 168.604 71.0269 168.775 68.1129 170.357L73.1282 179.594ZM74.0634 179.572C74.1965 179.613 74.2581 179.659 74.2857 179.683C74.3168 179.71 74.3511 179.75 74.3828 179.817C74.4476 179.953 74.5166 180.248 74.3855 180.663L84.4088 183.827C86.1886 178.187 83.6291 171.514 77.1483 169.524L74.0634 179.572ZM74.3815 180.676C74.0518 181.73 72.323 183.928 68.25 186.399C64.4649 188.696 59.584 190.656 54.7066 191.739C49.7432 192.84 45.3491 192.908 42.3083 192.006C39.6026 191.204 38.2795 189.818 37.8765 187.416L27.5109 189.156C28.7045 196.267 33.5517 200.372 39.3198 202.083C44.7528 203.694 51.136 203.297 56.9833 202C62.9166 200.683 68.8799 198.311 73.7022 195.385C78.2366 192.634 82.8785 188.719 84.4128 183.814L74.3815 180.676ZM37.8789 187.431C37.4078 184.576 37.5372 182.293 37.2644 178.447L26.7802 179.191C26.9551 181.657 26.9449 185.727 27.5086 189.142L37.8789 187.431ZM34.8915 174.416C34.5677 174.205 34.376 174.027 34.2833 173.923C34.1891 173.817 34.2598 173.86 34.333 174.077C34.3713 174.191 34.4059 174.341 34.4171 174.519C34.4283 174.699 34.4134 174.875 34.3784 175.034C34.3056 175.364 34.1855 175.457 34.3008 175.32L26.2596 168.551C24.1132 171.101 23.3152 174.292 24.3718 177.431C25.2918 180.163 27.3527 182.049 29.1532 183.222L34.8915 174.416ZM34.3193 175.298C34.5661 175.001 34.7661 174.914 36.2156 173.881C37.363 173.064 39.3801 171.542 40.4342 168.805L30.6256 165.028C30.7455 164.717 30.9533 164.725 30.1172 165.321C29.8873 165.485 29.0278 166.068 28.4981 166.466C27.8314 166.968 27.0083 167.652 26.2412 168.573L34.3193 175.298ZM40.421 168.839C40.7844 167.914 41.3018 166.321 41.675 165.265C42.1259 163.989 42.59 162.807 43.0923 161.839C43.6397 160.784 43.989 160.47 43.985 160.473C43.9271 160.517 43.6777 160.686 43.252 160.764C42.7984 160.847 42.427 160.774 42.2364 160.705L45.8291 150.827C42.6974 149.688 39.785 150.47 37.6401 152.094C35.7855 153.498 34.5626 155.457 33.7636 156.997C32.9193 158.623 32.2625 160.355 31.7651 161.763C31.1899 163.39 30.9315 164.249 30.6389 164.994L40.421 168.839ZM42.2523 160.71C42.4241 160.772 42.0855 160.681 41.7535 160.201C41.4435 159.753 41.4411 159.398 41.4448 159.479C41.4507 159.608 41.4345 159.924 41.3094 160.597C41.2495 160.92 41.1799 161.25 41.094 161.66C41.0135 162.044 40.9168 162.507 40.8343 162.976L51.1858 164.797C51.2348 164.519 51.2978 164.213 51.381 163.816C51.4586 163.446 51.5566 162.984 51.6434 162.516C51.8119 161.608 52.0064 160.346 51.9443 158.996C51.8799 157.597 51.5306 155.861 50.3988 154.224C49.2448 152.555 47.6094 151.468 45.8132 150.821L42.2523 160.71ZM57.2662 145.144C51.1227 145.181 45.2185 145.998 39.2194 147.794L42.2337 157.863C47.2129 156.373 52.1183 155.686 57.3288 155.655L57.2662 145.144ZM39.0945 147.833C38.6541 147.977 38.1245 148.04 36.8529 148.13L37.5964 158.614C38.6733 158.538 40.4922 158.434 42.3586 157.824L39.0945 147.833ZM36.8529 148.13C36.4962 148.155 37.1525 148.018 37.9528 148.722C38.8176 149.483 38.9315 150.414 38.9161 150.754C38.9038 151.029 38.8365 150.928 39.0999 150.52C39.34 150.148 39.7746 149.654 40.4585 149.172L34.4083 140.578C31.18 142.85 28.5917 146.39 28.4162 150.281C28.322 152.369 28.9676 154.815 31.0075 156.611C32.9829 158.35 35.4579 158.766 37.5964 158.614L36.8529 148.13ZM40.4551 149.175C46.8711 144.666 55.015 143.062 63.9991 142.059L62.8338 131.614C53.6693 132.636 43.1712 134.419 34.4117 140.575L40.4551 149.175ZM64.0272 142.056C68.7834 141.5 70.8735 143.468 71.3652 144.342C71.632 144.817 71.4637 144.885 71.559 144.626C71.691 144.266 71.8666 144.482 71.0433 144.736L74.1443 154.779C77.5073 153.74 80.2292 151.507 81.4256 148.248C82.5853 145.09 81.9997 141.809 80.5257 139.189C77.536 133.875 70.8511 130.675 62.8057 131.617L64.0272 142.056ZM71.0024 144.749C69.7706 145.14 67.7137 145.309 64.9512 145.295C63.6412 145.288 62.3268 145.244 61.0024 145.203C59.7244 145.164 58.3865 145.125 57.2067 145.145L57.3883 155.654C58.2713 155.639 59.3538 155.668 60.6769 155.709C61.9536 155.748 63.421 155.798 64.8964 155.805C67.7048 155.82 71.2333 155.704 74.1852 154.766L71.0024 144.749ZM109.818 152.87L114.976 153.874L115.557 150.892L113.262 148.901L109.818 152.87ZM109.268 152.393L112.712 148.424L111.031 146.965L108.814 147.158L109.268 152.393ZM99.5646 173.66L98.6775 178.84L98.6869 178.842L99.5646 173.66ZM115.365 171.802L112.843 167.191L112.81 167.209L112.778 167.227L115.365 171.802ZM120.926 172.219L124.37 168.249L124.37 168.249L120.926 172.219ZM122.045 177.598L117.587 174.815L117.582 174.824L117.576 174.832L122.045 177.598ZM84.3095 175.922L79.6553 178.363L79.6609 178.373L79.6666 178.384L84.3095 175.922ZM113.357 140.376L115.224 135.463L115.222 135.462L113.357 140.376ZM111.036 158.611L107.748 162.71L107.756 162.717L107.764 162.723L111.036 158.611ZM113.262 148.901L112.712 148.424L105.824 156.363L106.374 156.84L113.262 148.901ZM108.814 147.158C106.915 147.322 105.252 148.246 104.211 148.907C103 149.676 101.768 150.662 100.6 151.729C98.2665 153.861 95.822 156.653 93.9203 159.557C92.1531 162.256 90.2844 165.901 90.2833 169.556C90.2826 171.58 90.8641 173.851 92.5846 175.736C94.2548 177.567 96.4808 178.464 98.6775 178.84L100.452 168.48C99.7552 168.361 99.9678 168.235 100.348 168.651C100.779 169.123 100.794 169.591 100.794 169.56C100.794 169.106 101.195 167.634 102.713 165.315C104.098 163.201 105.956 161.073 107.689 159.489C108.555 158.698 109.298 158.127 109.847 157.778C110.566 157.321 110.447 157.566 109.721 157.629L108.814 147.158ZM98.6869 178.842C104.818 179.88 112.155 179.654 117.951 176.377L112.778 167.227C109.923 168.841 105.36 169.312 100.442 168.479L98.6869 178.842ZM117.887 176.412C118.044 176.326 118.135 176.296 118.16 176.289C118.18 176.283 118.116 176.304 117.987 176.302C117.847 176.299 117.698 176.27 117.567 176.219C117.442 176.169 117.416 176.131 117.482 176.188L124.37 168.249C122.557 166.676 120.423 165.831 118.168 165.793C116.032 165.756 114.205 166.446 112.843 167.191L117.887 176.412ZM117.482 176.188C117.708 176.384 117.512 176.309 117.428 175.867C117.388 175.659 117.39 175.438 117.432 175.23C117.473 175.027 117.542 174.887 117.587 174.815L126.503 180.38C127.675 178.503 128.196 176.234 127.753 173.903C127.316 171.606 126.031 169.69 124.37 168.249L117.482 176.188ZM117.576 174.832C116.9 175.925 115.344 177.27 112.691 178.374C110.113 179.447 106.923 180.106 103.633 180.153C96.7867 180.25 91.2518 177.796 88.9524 173.46L79.6666 178.384C84.6047 187.696 95.026 190.786 103.782 190.662C108.294 190.598 112.817 189.705 116.729 188.078C120.566 186.481 124.279 183.976 126.514 180.363L117.576 174.832ZM88.9637 173.481C87.7757 171.216 87.5887 168.262 88.6407 164.697C89.6949 161.125 91.8981 157.337 94.8198 153.974C97.7418 150.61 101.155 147.933 104.365 146.396C107.667 144.814 110.055 144.743 111.493 145.289L115.222 135.462C110.027 133.491 104.466 134.694 99.8249 136.916C95.0917 139.183 90.5692 142.84 86.8851 147.081C83.2007 151.322 80.128 156.409 78.56 161.722C76.9899 167.042 76.8344 172.983 79.6553 178.363L88.9637 173.481ZM111.49 145.288C113.195 145.936 113.913 146.891 114.27 147.833C114.688 148.934 114.726 150.394 114.318 151.859C113.886 153.405 113.17 154.232 112.9 154.428C112.819 154.486 113.027 154.31 113.495 154.303C114.021 154.295 114.32 154.508 114.309 154.499L107.764 162.723C109.434 164.052 111.454 164.846 113.657 164.812C115.802 164.779 117.644 163.97 119.067 162.939C121.805 160.955 123.579 157.774 124.442 154.683C125.327 151.511 125.462 147.704 124.099 144.107C122.675 140.351 119.735 137.177 115.224 135.463L111.49 145.288ZM114.325 154.512C114.308 154.498 114.436 154.601 114.562 154.843C114.686 155.082 114.721 155.286 114.728 155.365C114.732 155.414 114.719 155.345 114.758 155.067C114.776 154.933 114.803 154.775 114.841 154.572C114.883 154.348 114.92 154.164 114.976 153.874L104.659 151.867C104.526 152.551 104.089 154.411 104.259 156.304C104.467 158.62 105.509 160.914 107.748 162.71L114.325 154.512ZM127.003 174.886L121.772 175.392L121.773 175.404L121.774 175.416L127.003 174.886ZM127.682 149.096L122.481 148.343L122.477 148.366L122.474 148.389L127.682 149.096ZM135.506 131.503L132.249 127.378L132.248 127.379L135.506 131.503ZM144.121 136.497L139.597 133.823L139.593 133.83L139.589 133.838L144.121 136.497ZM139.979 148.814L135.22 151.042L138.391 157.813L143.688 152.537L139.979 148.814ZM162.248 158.077L156.992 158.108L156.992 158.122L156.993 158.137L162.248 158.077ZM162.831 175.664L167.981 174.617L167.978 174.602L167.975 174.587L162.831 175.664ZM161.534 180.255L164.977 184.226L165.026 184.183L165.074 184.139L161.534 180.255ZM156.082 181.379L154.042 186.223L154.056 186.229L154.07 186.234L156.082 181.379ZM150.885 165.3L156.139 165.397L156.139 165.391L150.885 165.3ZM138.344 168.402L143.545 169.161L143.546 169.153L143.547 169.145L138.344 168.402ZM134.169 180.247C133.303 180.308 133.155 180.128 133.297 180.214C133.432 180.295 133.362 180.336 133.189 179.964C132.993 179.541 132.795 178.862 132.627 177.815C132.456 176.754 132.366 175.684 132.231 174.355L121.774 175.416C121.976 177.401 122.211 181.283 123.658 184.395C124.464 186.129 125.765 187.945 127.869 189.214C129.981 190.488 132.403 190.909 134.912 190.731L134.169 180.247ZM132.234 174.38C131.45 166.283 131.771 158.042 132.889 149.803L122.474 148.389C121.267 157.279 120.897 166.347 121.772 175.392L132.234 174.38ZM132.883 149.849C133.266 147.198 133.939 144.169 134.997 141.46C136.084 138.679 137.393 136.71 138.765 135.626L132.248 127.379C128.8 130.104 126.618 134.025 125.207 137.635C123.769 141.317 122.938 145.181 122.481 148.343L132.883 149.849ZM138.763 135.627C139.187 135.292 139.453 135.267 139.532 135.264C139.65 135.259 139.721 135.294 139.739 135.306C139.775 135.33 139.614 135.243 139.511 134.903C139.456 134.724 139.431 134.506 139.458 134.278C139.486 134.047 139.557 133.891 139.597 133.823L148.646 139.171C151.649 134.089 149.132 128.917 145.537 126.54C141.826 124.085 136.563 123.972 132.249 127.378L138.763 135.627ZM139.589 133.838C138.283 136.064 136.891 138.967 135.921 141.637C135.439 142.963 135.004 144.388 134.763 145.731C134.643 146.403 134.548 147.177 134.558 147.98C134.568 148.727 134.67 149.867 135.22 151.042L144.739 146.585C145.072 147.296 145.068 147.826 145.068 147.846C145.069 147.92 145.062 147.848 145.109 147.586C145.203 147.059 145.426 146.256 145.8 145.226C146.543 143.182 147.657 140.856 148.654 139.157L139.589 133.838ZM143.688 152.537C149.516 146.732 152.59 147.42 153.423 147.85C154.751 148.536 156.953 151.397 156.992 158.108L167.503 158.046C167.455 150.011 164.862 141.928 158.246 138.511C151.135 134.84 143.118 138.269 136.271 145.09L143.688 152.537ZM156.993 158.137C157.03 161.472 156.92 163.861 156.934 167.413C156.946 170.494 157.07 173.791 157.687 176.741L167.975 174.587C167.588 172.74 167.456 170.339 167.444 167.373C167.435 164.879 167.535 160.873 167.503 158.017L156.993 158.137ZM157.681 176.711C157.72 176.903 157.686 176.935 157.713 176.832C157.727 176.775 157.757 176.692 157.812 176.598C157.869 176.502 157.935 176.425 157.994 176.371L165.074 184.139C168.12 181.363 168.58 177.563 167.981 174.617L157.681 176.711ZM158.091 176.285C158.115 176.264 158.123 176.26 158.111 176.268C158.099 176.275 158.075 176.29 158.039 176.308C157.961 176.345 157.868 176.378 157.778 176.398C157.735 176.407 157.703 176.412 157.682 176.414C157.66 176.416 157.658 176.415 157.675 176.415C157.7 176.416 157.855 176.426 158.094 176.524L154.07 186.234C156.176 187.107 158.349 187.036 160.05 186.66C161.776 186.278 163.543 185.469 164.977 184.226L158.091 176.285ZM158.122 176.536C157.999 176.485 157.194 176.005 156.625 173.289C156.105 170.808 156.093 167.881 156.139 165.397L145.63 165.203C145.585 167.667 145.548 171.675 146.338 175.445C147.079 178.979 148.918 184.065 154.042 186.223L158.122 176.536ZM156.139 165.391C156.243 159.405 155.695 154.626 154.155 151.408C153.36 149.745 151.952 147.788 149.527 146.884C146.948 145.923 144.561 146.638 142.94 147.598C140.051 149.308 137.958 152.647 136.541 155.738C135 159.097 133.775 163.23 133.142 167.659L143.547 169.145C144.048 165.638 145.007 162.49 146.094 160.12C146.637 158.936 147.175 158.028 147.642 157.396C148.145 156.716 148.399 156.58 148.293 156.643C148.124 156.743 147.146 157.213 145.858 156.733C144.724 156.311 144.491 155.561 144.675 155.945C144.837 156.285 145.128 157.132 145.347 158.76C145.559 160.345 145.678 162.462 145.63 165.209L156.139 165.391ZM133.144 167.643C132.805 169.965 133.224 172.478 133.532 174.2C133.903 176.277 134.228 177.751 134.348 179.182C134.473 180.67 134.229 180.87 134.387 180.605C134.798 179.92 135.312 180.166 134.169 180.247L134.912 190.731C138.356 190.487 141.539 189.113 143.399 186.014C145.007 183.335 144.992 180.323 144.822 178.301C144.647 176.222 144.153 173.886 143.878 172.351C143.541 170.461 143.486 169.559 143.545 169.161L133.144 167.643ZM172.159 179.354L168.934 183.503L168.935 183.504L172.159 179.354ZM166.462 167.662L171.716 167.532L171.715 167.515L171.715 167.497L166.462 167.662ZM171.848 152.085L167.878 148.642L167.862 148.66L167.846 148.679L171.848 152.085ZM175.739 148.712L171.77 145.268L171.718 145.328L171.667 145.39L175.739 148.712ZM178.294 144.179L174.163 140.931L174.146 140.952L174.129 140.974L178.294 144.179ZM194.979 144.397L191.001 147.83L191.011 147.842L191.022 147.855L194.979 144.397ZM180.289 170.222L176.606 173.971L177.109 174.465L177.725 174.809L180.289 170.222ZM185.74 151.395L184.667 156.54L184.677 156.542L185.74 151.395ZM193.276 155.139C193.413 157.082 192.951 159.971 191.743 163.229C190.557 166.431 188.797 169.597 186.73 172.086C184.619 174.629 182.514 176.083 180.74 176.58C179.264 176.993 177.564 176.898 175.383 175.204L168.935 183.504C173.584 187.116 178.698 188.068 183.576 186.701C188.155 185.417 191.942 182.263 194.817 178.8C197.736 175.284 200.056 171.048 201.6 166.88C203.122 162.77 204.038 158.324 203.76 154.395L193.276 155.139ZM175.385 175.205C172.938 173.303 171.799 170.919 171.716 167.532L161.208 167.791C161.361 173.976 163.731 179.457 168.934 183.503L175.385 175.205ZM171.715 167.497C171.579 163.167 173.113 158.706 175.85 155.492L167.846 148.679C163.366 153.942 160.994 160.97 161.209 167.826L171.715 167.497ZM175.818 155.529C175.947 155.381 176.149 155.209 176.939 154.627C177.564 154.166 178.786 153.291 179.811 152.034L171.667 145.39C171.607 145.463 171.463 145.607 170.704 146.166C170.109 146.604 168.909 147.454 167.878 148.642L175.818 155.529ZM179.709 152.155C180.852 150.838 181.493 149.389 181.832 148.642C182.263 147.693 182.364 147.508 182.459 147.383L174.129 140.974C173.144 142.254 172.548 143.667 172.261 144.299C172.082 144.693 171.976 144.915 171.879 145.089C171.792 145.247 171.756 145.284 171.77 145.268L179.709 152.155ZM182.426 147.427C183.151 146.504 184.532 145.825 186.449 145.89C188.399 145.955 190.098 146.784 191.001 147.83L198.958 140.964C195.842 137.352 191.195 135.533 186.804 135.385C182.382 135.236 177.429 136.776 174.163 140.931L182.426 147.427ZM191.022 147.855C192.348 149.372 193.037 151.773 193.276 155.139L203.76 154.395C203.478 150.422 202.588 145.117 198.937 140.939L191.022 147.855ZM177.725 174.809C180.092 176.132 182.532 175.825 184.318 175.032C185.95 174.307 187.226 173.128 188.15 172.076C190.034 169.93 191.582 167.013 192.607 164.168C193.618 161.361 194.358 157.963 194.025 154.823C193.856 153.221 193.371 151.357 192.176 149.698C190.898 147.923 189.036 146.71 186.802 146.249L184.677 156.542C184.37 156.479 183.931 156.234 183.647 155.84C183.445 155.56 183.527 155.488 183.573 155.93C183.674 156.879 183.448 158.579 182.718 160.607C182.002 162.596 181.034 164.251 180.253 165.141C179.844 165.606 179.749 165.561 180.051 165.427C180.507 165.224 181.657 164.966 182.853 165.634L177.725 174.809ZM186.812 146.251C182.459 145.343 179.413 148.298 178.019 150.106C176.418 152.183 175.258 154.843 174.513 157.396C173.757 159.985 173.307 162.878 173.411 165.592C173.506 168.085 174.113 171.522 176.606 173.971L183.972 166.472C184.364 166.858 183.975 166.779 183.914 165.191C183.862 163.825 184.097 162.074 184.602 160.34C185.118 158.573 185.795 157.234 186.343 156.524C187.097 155.546 186.512 156.925 184.667 156.54L186.812 146.251ZM212.818 169.98L207.563 169.963L207.552 173.458L210.77 174.819L212.818 169.98ZM207.19 177.976L210.167 173.646L210.164 173.644L207.19 177.976ZM208.522 144.764L207.281 139.657L207.277 139.658L208.522 144.764ZM212.842 164.077L207.606 163.635L207.604 163.656L207.602 163.677L212.842 164.077ZM205.816 136.769L200.565 136.975L200.566 136.995L200.567 137.014L205.816 136.769ZM210.77 174.819C211.279 175.035 211.428 175.194 211.405 175.171C211.366 175.131 211.211 174.945 211.121 174.609C210.932 173.894 211.249 173.516 211.191 173.59C211.135 173.662 210.967 173.789 210.767 173.828C210.691 173.843 210.623 173.843 210.555 173.829C210.492 173.817 210.363 173.78 210.167 173.646L204.212 182.306C209.9 186.218 216.362 184.023 219.457 180.083C221.047 178.058 222.127 175.105 221.28 171.913C220.414 168.647 217.88 166.416 214.867 165.14L210.77 174.819ZM210.164 173.644C209.606 173.26 208.641 172.045 207.936 169.302C207.27 166.711 207.031 163.479 207.241 160.214C207.452 156.938 208.093 153.966 208.945 151.873C209.371 150.826 209.776 150.184 210.057 149.851C210.343 149.512 210.279 149.745 209.767 149.87L207.277 139.658C204.953 140.225 203.226 141.648 202.022 143.075C200.814 144.508 199.903 146.208 199.211 147.908C197.825 151.311 197.015 155.453 196.752 159.54C196.489 163.639 196.754 168.019 197.756 171.918C198.719 175.665 200.587 179.817 204.215 182.309L210.164 173.644ZM209.764 149.871C210.301 149.74 210.221 149.874 209.808 149.74C209.31 149.578 208.976 149.242 208.843 149.04C208.799 148.974 209.135 149.63 209.112 151.725C209.093 153.58 208.814 155.745 208.471 157.912C208.172 159.805 207.727 162.196 207.606 163.635L218.079 164.519C218.158 163.584 218.452 162.087 218.853 159.556C219.21 157.299 219.594 154.502 219.622 151.837C219.648 149.41 219.418 145.985 217.618 143.255C216.607 141.721 215.097 140.406 213.054 139.743C211.095 139.107 209.1 139.215 207.281 139.657L209.764 149.871ZM207.602 163.677C207.432 165.906 207.568 168.5 207.563 169.963L218.074 169.996C218.082 167.475 217.947 166.253 218.082 164.478L207.602 163.677ZM209.566 133.921C209.588 134.238 209.508 134.412 209.407 134.549C209.265 134.743 209.061 134.868 208.942 134.907C208.759 134.968 209.207 134.748 209.954 135.161C210.358 135.386 210.686 135.72 210.889 136.083C211.079 136.422 211.07 136.623 211.066 136.523L200.567 137.014C200.705 139.982 202.067 142.808 204.86 144.355C207.392 145.758 210.156 145.576 212.243 144.886C216.409 143.508 220.479 139.225 220.05 133.178L209.566 133.921ZM211.067 136.562C211.007 135.037 211.35 134.505 211.364 134.484C211.372 134.472 211.329 134.537 211.21 134.612C211.095 134.685 210.953 134.74 210.8 134.762C210.512 134.805 210.215 134.733 209.966 134.541C209.835 134.439 209.727 134.311 209.653 134.172C209.618 134.104 209.595 134.044 209.581 133.996C209.575 133.973 209.571 133.954 209.568 133.941C209.566 133.928 209.566 133.921 209.566 133.921L220.05 133.178C219.623 127.16 214.349 123.607 209.252 124.366C206.649 124.754 204.263 126.222 202.657 128.597C201.082 130.927 200.441 133.83 200.565 136.975L211.067 136.562ZM235.614 151.915L240.793 151.023L239.761 145.031L233.982 146.919L235.614 151.915ZM235.037 152.103L233.405 147.108L231.987 147.571L231.024 148.71L235.037 152.103ZM229.171 162.993L234.342 163.93L234.345 163.917L234.347 163.904L229.171 162.993ZM222.604 171.277L223.645 166.126L223.62 166.121L223.595 166.116L222.604 171.277ZM218.963 166.741L213.709 166.859L213.71 166.899L213.711 166.938L218.963 166.741ZM221.683 147.887L216.469 147.224L216.465 147.26L216.461 147.296L221.683 147.887ZM224.164 144.392L225.211 149.542L225.242 149.536L225.273 149.529L224.164 144.392ZM228.466 146.816L224.728 150.51L228.238 154.062L231.964 150.738L228.466 146.816ZM247.343 166.499L242.117 167.048L242.119 167.068L242.121 167.088L247.343 166.499ZM245.585 170.828L242.988 166.259L245.585 170.828ZM240.138 170.993L243.231 166.743L243.209 166.728L243.188 166.712L240.138 170.993ZM236.406 161.005L241.639 160.526L241.638 160.516L241.637 160.505L236.406 161.005ZM233.982 146.919L233.405 147.108L236.669 157.099L237.246 156.91L233.982 146.919ZM231.024 148.71C228.232 152.012 224.983 156.471 223.995 162.082L234.347 163.904C234.831 161.15 236.534 158.472 239.05 155.497L231.024 148.71ZM224 162.056C223.838 162.95 223.684 163.782 223.475 164.581C223.264 165.393 223.048 165.956 222.856 166.31C222.661 166.669 222.647 166.523 222.974 166.335C223.417 166.08 223.764 166.15 223.645 166.126L221.563 176.428C223.876 176.896 226.18 176.615 228.211 175.448C230.126 174.348 231.33 172.728 232.09 171.331C233.521 168.699 234.057 165.502 234.342 163.93L224 162.056ZM223.595 166.116C223.651 166.127 223.754 166.159 223.871 166.232C223.987 166.303 224.076 166.389 224.137 166.468C224.255 166.622 224.22 166.678 224.215 166.544L213.711 166.938C213.868 171.1 216.517 175.459 221.612 176.438L223.595 166.116ZM224.217 166.623C224.18 164.958 224.598 162.08 225.238 158.471C225.822 155.173 226.585 151.299 226.905 148.479L216.461 147.296C216.191 149.68 215.542 152.95 214.889 156.637C214.29 160.012 213.644 163.958 213.709 166.859L224.217 166.623ZM226.896 148.551C226.915 148.404 226.937 148.31 226.95 148.266C226.965 148.218 226.952 148.282 226.872 148.415C226.788 148.555 226.611 148.8 226.297 149.042C225.965 149.296 225.582 149.467 225.211 149.542L223.117 139.242C220.555 139.763 218.847 141.364 217.862 143.003C216.956 144.511 216.613 146.097 216.469 147.224L226.896 148.551ZM225.273 149.529C225.412 149.499 225.123 149.586 224.602 149.473C224.339 149.417 224.077 149.322 223.833 149.195C223.596 149.071 223.425 148.942 223.322 148.854C223.227 148.773 223.188 148.725 223.221 148.762C223.259 148.805 223.318 148.875 223.453 149.042C223.676 149.321 224.143 149.918 224.728 150.51L232.204 143.122C232.074 142.99 231.963 142.854 231.644 142.457C231.404 142.159 230.862 141.47 230.142 140.857C229.318 140.154 228.224 139.502 226.813 139.198C225.471 138.909 224.187 139.011 223.055 139.255L225.273 149.529ZM231.964 150.738C235.784 147.332 237.424 147.391 237.519 147.404C237.531 147.405 237.529 147.405 237.537 147.409C237.551 147.416 237.621 147.454 237.744 147.57C238.014 147.827 238.424 148.361 238.883 149.344C239.82 151.354 240.515 154.254 241.034 157.621C241.547 160.95 241.818 164.215 242.117 167.048L252.569 165.949C252.302 163.401 251.986 159.682 251.422 156.021C250.864 152.397 249.993 148.299 248.408 144.901C246.871 141.606 244.003 137.644 238.867 136.98C234.057 136.358 229.369 138.969 224.968 142.894L231.964 150.738ZM242.121 167.088C242.143 167.284 242.141 167.394 242.138 167.431C242.136 167.466 242.136 167.391 242.188 167.243C242.243 167.085 242.346 166.876 242.517 166.668C242.69 166.458 242.868 166.327 242.988 166.259L248.182 175.396C252.523 172.928 252.86 168.516 252.565 165.909L242.121 167.088ZM242.988 166.259C242.931 166.291 242.841 166.333 242.729 166.366C242.618 166.4 242.53 166.413 242.482 166.416C242.431 166.419 242.474 166.408 242.597 166.437C242.725 166.468 242.962 166.548 243.231 166.743L237.046 175.242C239.057 176.705 241.339 177.016 243.126 176.906C244.936 176.795 246.702 176.237 248.182 175.396L242.988 166.259ZM243.188 166.712C242.939 166.536 242.595 166.17 242.285 165.078C241.944 163.877 241.818 162.478 241.639 160.526L231.172 161.483C231.322 163.123 231.509 165.61 232.175 167.952C232.872 170.404 234.23 173.236 237.089 175.273L243.188 166.712ZM241.637 160.505C241.504 159.109 241.442 157.747 241.335 156.086C241.233 154.516 241.093 152.767 240.793 151.023L230.435 152.806C230.636 153.978 230.749 155.271 230.846 156.767C230.937 158.172 231.021 159.897 231.174 161.504L241.637 160.505ZM272.436 155.499L277.058 152.998L276.914 152.732L276.74 152.483L272.436 155.499ZM272.19 155.148L276.494 152.132L272.671 146.676L268.255 151.665L272.19 155.148ZM250.461 147.248L255.497 148.751L255.5 148.74L255.503 148.729L250.461 147.248ZM276.493 134.706L275.705 139.902L275.726 139.905L275.747 139.908L276.493 134.706ZM280.987 142.944L275.967 144.5L275.97 144.509L275.973 144.517L280.987 142.944ZM283.555 164.594L288.741 165.444L288.743 165.433L288.745 165.422L283.555 164.594ZM276.051 180.468L272.515 176.581L272.498 176.596L272.481 176.612L276.051 180.468ZM254.328 180.976L250.531 184.61L250.535 184.614L254.328 180.976ZM253.324 166.812L251.22 161.996L251.213 161.999L251.207 162.002L253.324 166.812ZM262.164 171.865L266.196 168.494L266.19 168.487L262.164 171.865ZM262.078 144.654L266.105 148.031L266.136 147.993L266.167 147.955L262.078 144.654ZM266.903 150.286L263.164 146.594L263.158 146.599L263.153 146.604L266.903 150.286ZM276.74 152.483L276.494 152.132L267.886 158.164L268.132 158.515L276.74 152.483ZM268.255 151.665C264.04 156.426 259.52 157.066 257.326 156.358C256.322 156.035 255.671 155.441 255.296 154.56C254.888 153.6 254.597 151.763 255.497 148.751L245.425 145.744C244.03 150.418 244.01 154.878 245.624 158.673C247.271 162.546 250.393 165.166 254.098 166.361C261.321 168.692 269.96 165.596 276.125 158.631L268.255 151.665ZM255.503 148.729C257.157 143.102 262.641 138.523 268.694 138.094L267.95 127.61C257.417 128.357 248.281 136.027 245.419 145.766L255.503 148.729ZM268.694 138.094C269.404 138.044 269.925 138.152 270.832 138.473C271.634 138.756 273.565 139.578 275.705 139.902L277.281 129.511C276.439 129.383 276.009 129.155 274.333 128.563C272.763 128.008 270.689 127.416 267.95 127.61L268.694 138.094ZM275.747 139.908C275.999 139.945 275.664 139.94 275.257 139.542C274.904 139.196 274.881 138.921 274.96 139.203C275.059 139.56 275.123 140.013 275.263 141.032C275.381 141.888 275.56 143.187 275.967 144.5L286.006 141.387C285.887 141.004 285.801 140.506 285.676 139.599C285.574 138.857 285.419 137.583 285.085 136.384C284.731 135.112 284.061 133.453 282.611 132.033C281.107 130.559 279.223 129.789 277.24 129.505L275.747 139.908ZM275.973 144.517C278.189 151.579 279.395 157.308 278.365 163.767L288.745 165.422C290.165 156.512 288.359 148.883 286.001 141.37L275.973 144.517ZM278.369 163.745C277.468 169.244 275.801 173.591 272.515 176.581L279.587 184.356C285.447 179.026 287.686 171.885 288.741 165.444L278.369 163.745ZM272.481 176.612C269.784 179.109 267.121 180.262 264.886 180.399C262.819 180.525 260.511 179.83 258.121 177.338L250.535 184.614C254.836 189.097 260.066 191.224 265.527 190.89C270.82 190.566 275.674 187.979 279.621 184.325L272.481 176.612ZM258.125 177.343C257.728 176.928 257.179 176.196 256.669 175.253C256.162 174.316 255.801 173.367 255.633 172.561C255.457 171.715 255.562 171.374 255.557 171.389C255.485 171.594 255.295 171.686 255.441 171.622L251.207 162.002C248.456 163.213 246.554 165.308 245.642 167.9C244.797 170.302 244.933 172.735 245.343 174.705C246.147 178.563 248.355 182.336 250.531 184.61L258.125 177.343ZM255.427 171.628C255.719 171.501 255.597 171.62 255.249 171.552C254.955 171.495 254.901 171.379 255.131 171.575C255.392 171.796 255.743 172.178 256.284 172.868C256.685 173.381 257.496 174.477 258.138 175.242L266.19 168.487C265.664 167.859 265.34 167.386 264.558 166.387C263.916 165.567 263.034 164.496 261.931 163.561C260.798 162.599 259.248 161.621 257.246 161.233C255.189 160.835 253.146 161.155 251.22 161.996L255.427 171.628ZM258.132 175.235C260.816 178.446 264.723 180.493 269.079 179.06C272.671 177.877 274.951 174.756 276.262 172.178C277.678 169.397 278.572 166.085 278.821 162.872C279.064 159.733 278.732 156.092 277.058 152.998L267.814 158C268.177 158.671 268.497 160.055 268.342 162.061C268.192 163.993 267.64 165.947 266.894 167.413C266.045 169.081 265.452 169.188 265.794 169.076C266.9 168.712 267.179 169.67 266.196 168.494L258.132 175.235ZM258.052 141.276C256.455 143.18 255.473 145.379 255.12 147.56C254.782 149.649 254.97 152.143 256.3 154.291C257.809 156.727 260.552 158.227 263.73 157.837C266.463 157.501 268.791 155.864 270.653 153.968L263.153 146.604C262.653 147.113 262.311 147.355 262.148 147.452C261.981 147.552 262.088 147.449 262.449 147.404C262.847 147.355 263.433 147.398 264.049 147.702C264.649 147.999 265.029 148.423 265.235 148.756C265.597 149.34 265.438 149.595 265.495 149.239C265.538 148.973 265.696 148.519 266.105 148.031L258.052 141.276ZM270.643 153.978C272.832 151.761 274.372 149.265 274.941 146.641C275.51 144.019 275.119 140.928 272.904 138.643C270.634 136.3 267.468 135.861 264.775 136.583C262.151 137.286 259.85 139.048 257.99 141.352L266.167 147.955C267.086 146.817 267.63 146.699 267.497 146.735C267.414 146.757 267.123 146.815 266.691 146.718C266.243 146.617 265.757 146.371 265.357 145.958C264.505 145.079 264.704 144.256 264.67 144.413C264.636 144.567 264.381 145.361 263.164 146.594L270.643 153.978Z" fill="#FFC34E" mask="url(#path-37-outside-1_45_1060)"/>
<mask id="path-39-outside-2_45_1060" maskUnits="userSpaceOnUse" x="43.778" y="172.145" width="270.717" height="80.7331" fill="black">
<rect fill="white" x="43.778" y="172.145" width="270.717" height="80.7331"/>
<path d="M71.9401 219.579C73.4881 216.445 75.0308 213.238 77.6635 210.838C81.3346 207.48 85.9316 207.818 89.3528 211.337C93.8113 215.963 95.0855 225.609 97.2158 231.727C99.0688 237.054 94.1236 241.166 89.2814 238.412C85.9065 236.586 84.5309 230.709 83.5008 225.545C82.2303 219.071 79.0808 217.303 78.2376 226.213C77.5521 234.228 75.5685 238.499 72.2607 238.66C70.2006 238.732 68.7911 237.578 68.0687 235.712C66.9746 232.765 66.3313 229.934 65.8295 227.02C65.1602 223.822 63.9506 221.326 63.0459 227.291C62.5041 231.091 62.2444 236.789 61.0108 240.195C59.4623 244.362 53.3975 244.128 52.6501 239.829C51.7668 234.655 52.7641 211.277 60.0974 211.715C62.692 211.9 62.9533 213.504 63.6862 215.518C68.3467 214.671 69.5204 215.62 71.9401 219.579ZM112.411 226.224L111.986 226.475C111.789 232.021 119.177 228.03 124.939 226.073C131.482 223.691 134.184 229.548 129.15 233.445C126.842 235.232 123.691 236.561 122.186 237.184C117.316 239.226 112.268 238.773 107.541 236.6C91.1374 228.913 105.672 199.854 124.421 202.138C133.275 203.207 134.58 213.293 129.55 219.329C124.861 224.972 119.948 226.427 112.851 226.193L112.411 226.224ZM124.297 210.777C120.03 209.899 114.99 214.756 113.704 218.461C117.928 219.784 124.703 215.468 124.297 210.777ZM156.367 213.592C157.915 210.458 159.458 207.25 162.09 204.851C165.761 201.493 170.358 201.83 173.78 205.35C178.238 209.975 179.512 219.621 181.643 225.739C183.496 231.066 178.55 235.179 173.708 232.424C170.333 230.598 168.958 224.721 167.928 219.557C166.657 213.083 163.508 211.315 162.664 220.226C161.979 228.24 159.995 232.511 156.688 232.672C154.627 232.745 153.218 231.591 152.495 229.724C151.401 226.778 150.758 223.947 150.256 221.032C149.587 217.834 148.377 215.338 147.473 221.303C146.931 225.103 146.671 230.801 145.438 234.208C143.889 238.374 137.824 238.141 137.077 233.842C136.194 228.668 137.191 205.289 144.524 205.728C147.119 205.913 147.38 207.517 148.113 209.53C152.773 208.683 153.947 209.633 156.367 213.592ZM216.899 208.782C217.732 220.525 204.201 243.981 190.54 233.369C186.715 230.395 184.961 226.463 184.843 221.677C184.668 216.084 186.621 210.34 190.229 206.101C191.388 204.765 193.035 204.058 194.12 202.727C195.279 201.391 195.595 199.598 196.675 198.194C200.667 193.116 209.342 193.755 213.36 198.412C215.849 201.26 216.638 205.113 216.899 208.782ZM198.67 224.237C203.355 226.855 211.831 207.003 204.121 205.41C199.105 204.365 194.468 220.109 198.67 224.237ZM231.199 223.995C239.26 227.406 231.697 236.204 225.571 231.991C217.197 226.242 219.653 200.547 226.903 198.779C236.329 196.488 231.624 213.344 231.223 218.093C231.07 220.095 231.206 222.003 231.199 223.995ZM233.189 187.565C233.652 194.096 224.483 196.886 224.197 190.784C223.83 181.442 232.793 181.987 233.189 187.565ZM252.405 199.11C255.98 197.528 263.5 193.307 267.215 194.74C268.887 195.433 270.171 196.891 269.939 198.825C269.303 203.369 252.078 201.788 249.841 220.165C249.415 223.514 250.587 228.594 245.936 229.588C233.59 232.308 237.902 195.344 247.81 194.641C250.745 194.433 252.217 196.468 252.405 199.11ZM286.353 213.888L285.928 214.139C285.731 219.685 293.119 215.694 298.881 213.737C305.424 211.355 308.126 217.212 303.092 221.109C300.784 222.895 297.633 224.225 296.129 224.848C291.258 226.89 286.21 226.437 281.483 224.264C265.08 216.577 279.614 187.517 298.364 189.802C307.217 190.87 308.522 200.957 303.492 206.993C298.803 212.636 293.89 214.091 286.793 213.856L286.353 213.888ZM298.239 198.441C293.972 197.563 288.932 202.42 287.646 206.125C291.87 207.448 298.645 203.132 298.239 198.441Z"/>
</mask>
<path d="M71.9401 219.579C73.4881 216.445 75.0308 213.238 77.6635 210.838C81.3346 207.48 85.9316 207.818 89.3528 211.337C93.8113 215.963 95.0855 225.609 97.2158 231.727C99.0688 237.054 94.1236 241.166 89.2814 238.412C85.9065 236.586 84.5309 230.709 83.5008 225.545C82.2303 219.071 79.0808 217.303 78.2376 226.213C77.5521 234.228 75.5685 238.499 72.2607 238.66C70.2006 238.732 68.7911 237.578 68.0687 235.712C66.9746 232.765 66.3313 229.934 65.8295 227.02C65.1602 223.822 63.9506 221.326 63.0459 227.291C62.5041 231.091 62.2444 236.789 61.0108 240.195C59.4623 244.362 53.3975 244.128 52.6501 239.829C51.7668 234.655 52.7641 211.277 60.0974 211.715C62.692 211.9 62.9533 213.504 63.6862 215.518C68.3467 214.671 69.5204 215.62 71.9401 219.579ZM112.411 226.224L111.986 226.475C111.789 232.021 119.177 228.03 124.939 226.073C131.482 223.691 134.184 229.548 129.15 233.445C126.842 235.232 123.691 236.561 122.186 237.184C117.316 239.226 112.268 238.773 107.541 236.6C91.1374 228.913 105.672 199.854 124.421 202.138C133.275 203.207 134.58 213.293 129.55 219.329C124.861 224.972 119.948 226.427 112.851 226.193L112.411 226.224ZM124.297 210.777C120.03 209.899 114.99 214.756 113.704 218.461C117.928 219.784 124.703 215.468 124.297 210.777ZM156.367 213.592C157.915 210.458 159.458 207.25 162.09 204.851C165.761 201.493 170.358 201.83 173.78 205.35C178.238 209.975 179.512 219.621 181.643 225.739C183.496 231.066 178.55 235.179 173.708 232.424C170.333 230.598 168.958 224.721 167.928 219.557C166.657 213.083 163.508 211.315 162.664 220.226C161.979 228.24 159.995 232.511 156.688 232.672C154.627 232.745 153.218 231.591 152.495 229.724C151.401 226.778 150.758 223.947 150.256 221.032C149.587 217.834 148.377 215.338 147.473 221.303C146.931 225.103 146.671 230.801 145.438 234.208C143.889 238.374 137.824 238.141 137.077 233.842C136.194 228.668 137.191 205.289 144.524 205.728C147.119 205.913 147.38 207.517 148.113 209.53C152.773 208.683 153.947 209.633 156.367 213.592ZM216.899 208.782C217.732 220.525 204.201 243.981 190.54 233.369C186.715 230.395 184.961 226.463 184.843 221.677C184.668 216.084 186.621 210.34 190.229 206.101C191.388 204.765 193.035 204.058 194.12 202.727C195.279 201.391 195.595 199.598 196.675 198.194C200.667 193.116 209.342 193.755 213.36 198.412C215.849 201.26 216.638 205.113 216.899 208.782ZM198.67 224.237C203.355 226.855 211.831 207.003 204.121 205.41C199.105 204.365 194.468 220.109 198.67 224.237ZM231.199 223.995C239.26 227.406 231.697 236.204 225.571 231.991C217.197 226.242 219.653 200.547 226.903 198.779C236.329 196.488 231.624 213.344 231.223 218.093C231.07 220.095 231.206 222.003 231.199 223.995ZM233.189 187.565C233.652 194.096 224.483 196.886 224.197 190.784C223.83 181.442 232.793 181.987 233.189 187.565ZM252.405 199.11C255.98 197.528 263.5 193.307 267.215 194.74C268.887 195.433 270.171 196.891 269.939 198.825C269.303 203.369 252.078 201.788 249.841 220.165C249.415 223.514 250.587 228.594 245.936 229.588C233.59 232.308 237.902 195.344 247.81 194.641C250.745 194.433 252.217 196.468 252.405 199.11ZM286.353 213.888L285.928 214.139C285.731 219.685 293.119 215.694 298.881 213.737C305.424 211.355 308.126 217.212 303.092 221.109C300.784 222.895 297.633 224.225 296.129 224.848C291.258 226.89 286.21 226.437 281.483 224.264C265.08 216.577 279.614 187.517 298.364 189.802C307.217 190.87 308.522 200.957 303.492 206.993C298.803 212.636 293.89 214.091 286.793 213.856L286.353 213.888ZM298.239 198.441C293.972 197.563 288.932 202.42 287.646 206.125C291.87 207.448 298.645 203.132 298.239 198.441Z" fill="#E76B3C"/>
<path d="M71.9401 219.579L67.4561 222.32L72.4291 230.456L76.652 221.906L71.9401 219.579ZM77.6635 210.838L81.2036 214.723L81.2107 214.716L77.6635 210.838ZM89.3528 211.337L93.1365 207.69L93.1287 207.682L93.1208 207.674L89.3528 211.337ZM97.2158 231.727L102.179 230L102.179 229.999L97.2158 231.727ZM89.2814 238.412L91.8799 233.844L91.8313 233.816L91.7821 233.789L89.2814 238.412ZM83.5008 225.545L78.3439 226.557L78.3455 226.565L78.3471 226.573L83.5008 225.545ZM78.2376 226.213L73.0057 225.718L73.0034 225.742L73.0014 225.766L78.2376 226.213ZM72.2607 238.66L72.4452 243.912L72.4806 243.911L72.516 243.909L72.2607 238.66ZM68.0687 235.712L63.1421 237.541L63.1547 237.575L63.1677 237.609L68.0687 235.712ZM65.8295 227.02L71.0086 226.128L70.9927 226.035L70.9734 225.943L65.8295 227.02ZM63.0459 227.291L57.8501 226.503L57.8466 226.526L57.8433 226.549L63.0459 227.291ZM61.0108 240.195L65.9369 242.026L65.9446 242.005L65.9521 241.985L61.0108 240.195ZM52.6501 239.829L47.4697 240.714L47.4711 240.722L47.4725 240.73L52.6501 239.829ZM60.0974 211.715L60.4707 206.473L60.441 206.471L60.4112 206.47L60.0974 211.715ZM63.6862 215.518L58.7479 217.315L60.2642 221.481L64.6257 220.688L63.6862 215.518ZM76.652 221.906C78.3032 218.564 79.4389 216.331 81.2036 214.723L74.1235 206.954C70.6228 210.145 68.673 214.327 67.2283 217.252L76.652 221.906ZM81.2107 214.716C82.141 213.865 82.8705 213.733 83.3323 213.757C83.8309 213.783 84.6384 214.027 85.5847 215L93.1208 207.674C90.6459 205.128 87.4444 203.444 83.8714 203.26C80.2616 203.075 76.857 204.454 74.1163 206.961L81.2107 214.716ZM85.569 214.984C86.8575 216.321 88.0058 218.808 89.1296 222.502C89.6664 224.266 90.1346 226.074 90.6368 227.961C91.1221 229.785 91.6468 231.715 92.2528 233.455L102.179 229.999C101.72 228.68 101.286 227.109 100.794 225.259C100.319 223.473 99.7905 221.433 99.1851 219.443C98.0246 215.628 96.3065 210.979 93.1365 207.69L85.569 214.984ZM92.2523 233.454C92.3296 233.676 92.3524 233.836 92.3576 233.934C92.3628 234.033 92.3516 234.087 92.3468 234.106C92.3393 234.135 92.3415 234.107 92.3831 234.072C92.4246 234.038 92.458 234.036 92.442 234.037C92.4298 234.038 92.3835 234.04 92.2984 234.02C92.2132 233.999 92.0719 233.953 91.8799 233.844L86.683 242.98C90.8824 245.368 95.7303 244.982 99.1355 242.127C102.542 239.272 103.769 234.569 102.179 230L92.2523 233.454ZM91.7821 233.789C91.8184 233.809 91.2062 233.411 90.4214 231.356C89.7024 229.472 89.1716 227.109 88.6546 224.517L78.3471 226.573C78.8601 229.145 79.5322 232.302 80.6022 235.105C81.6065 237.735 83.3696 241.188 86.7807 243.034L91.7821 233.789ZM88.6578 224.533C88.2811 222.613 87.7174 220.767 86.9239 219.241C86.5298 218.483 85.9848 217.62 85.2276 216.858C84.4969 216.122 83.2199 215.138 81.3902 214.899C79.3591 214.633 77.6359 215.407 76.472 216.429C75.4278 217.345 74.8076 218.457 74.4264 219.324C73.6587 221.069 73.2362 223.282 73.0057 225.718L83.4695 226.708C83.6606 224.69 83.948 223.781 84.0477 223.555C84.1001 223.436 83.953 223.848 83.405 224.329C82.7371 224.915 81.5331 225.517 80.0277 225.321C78.7238 225.15 77.9793 224.475 77.7714 224.266C77.537 224.03 77.5052 223.91 77.5982 224.089C77.7789 224.437 78.0854 225.239 78.3439 226.557L88.6578 224.533ZM73.0014 225.766C72.678 229.547 72.0799 231.879 71.4877 233.122C70.9271 234.3 70.9514 233.462 72.0055 233.411L72.516 243.909C76.8778 243.697 79.5478 240.643 80.9773 237.641C82.3753 234.705 83.1117 230.894 83.4738 226.661L73.0014 225.766ZM72.0763 233.408C72.0745 233.408 72.0973 233.407 72.141 233.412C72.1852 233.418 72.2458 233.428 72.3187 233.45C72.473 233.495 72.6302 233.572 72.768 233.673C73.0469 233.877 73.0521 234.028 72.9697 233.815L63.1677 237.609C63.8077 239.262 64.8789 240.923 66.5582 242.153C68.2859 243.418 70.3336 243.986 72.4452 243.912L72.0763 233.408ZM72.9953 233.883C72.0538 231.347 71.4788 228.859 71.0086 226.128L60.6504 227.911C61.1838 231.01 61.8955 234.184 63.1421 237.541L72.9953 233.883ZM70.9734 225.943C70.7774 225.007 70.5116 223.965 70.1595 223.027C69.986 222.565 69.7387 221.984 69.3901 221.408C69.1169 220.956 68.4122 219.868 67.0835 219.128C66.3283 218.707 65.3034 218.365 64.0941 218.421C62.8788 218.477 61.8725 218.918 61.1333 219.436C59.8376 220.343 59.229 221.566 58.9805 222.116C58.414 223.368 58.0877 224.936 57.8501 226.503L68.2418 228.079C68.4565 226.663 68.6206 226.307 68.5563 226.449C68.5233 226.522 68.4298 226.718 68.2509 226.971C68.08 227.213 67.7364 227.643 67.1622 228.045C66.5498 228.474 65.6702 228.87 64.5811 228.92C63.498 228.97 62.5989 228.661 61.9684 228.31C60.8893 227.709 60.4305 226.903 60.3963 226.847C60.2866 226.665 60.2712 226.593 60.3194 226.721C60.4106 226.964 60.547 227.433 60.6857 228.096L70.9734 225.943ZM57.8433 226.549C57.577 228.416 57.3106 231.313 57.072 233.247C56.7867 235.56 56.4656 237.312 56.0695 238.406L65.9521 241.985C66.7896 239.672 67.2151 236.872 67.5035 234.534C67.8386 231.818 67.973 229.965 68.2486 228.033L57.8433 226.549ZM56.0847 238.365C56.1104 238.296 56.2076 238.146 56.3787 238.039C56.5143 237.955 56.639 237.932 56.7483 237.936C56.8561 237.941 57.0862 237.981 57.3478 238.191C57.6576 238.44 57.7985 238.761 57.8277 238.929L47.4725 240.73C48.3339 245.684 52.4321 248.276 56.3118 248.438C60.126 248.596 64.2814 246.481 65.9369 242.026L56.0847 238.365ZM57.8304 238.945C57.5214 237.135 57.4768 230.626 58.4785 224.518C58.9756 221.487 59.6557 219.06 60.4116 217.555C61.3135 215.76 61.299 217.052 59.7835 216.961L60.4112 206.47C55.2291 206.16 52.3399 210.209 51.02 212.836C49.5541 215.753 48.665 219.412 48.1065 222.817C46.9971 229.582 46.8955 237.35 47.4697 240.714L57.8304 238.945ZM59.724 216.958C59.849 216.966 59.6153 216.969 59.2306 216.77C59.0386 216.67 58.8501 216.541 58.6781 216.388C58.5088 216.236 58.3882 216.09 58.3092 215.979C58.1738 215.789 58.1694 215.71 58.2771 215.989C58.3269 216.119 58.3826 216.275 58.464 216.509C58.5378 216.722 58.6394 217.017 58.7479 217.315L68.6244 213.72C68.5606 213.545 68.2479 212.634 68.0852 212.211C67.8566 211.618 67.4873 210.748 66.8707 209.882C65.3357 207.727 63.0672 206.658 60.4707 206.473L59.724 216.958ZM64.6257 220.688C66.7681 220.299 66.6783 220.648 66.187 220.387C65.9827 220.278 65.9921 220.211 66.2354 220.505C66.5071 220.833 66.8736 221.367 67.4561 222.32L76.4242 216.838C75.301 215.001 73.7433 212.5 71.1199 211.106C68.2717 209.592 65.2647 209.89 62.7466 210.347L64.6257 220.688ZM112.411 226.224L112.039 220.982L110.801 221.069L109.734 221.701L112.411 226.224ZM111.986 226.475L109.309 221.953L106.836 223.417L106.734 226.289L111.986 226.475ZM124.939 226.073L126.629 231.049L126.683 231.031L126.736 231.011L124.939 226.073ZM129.15 233.445L125.932 229.29L129.15 233.445ZM122.186 237.184L120.176 232.329L120.165 232.333L120.155 232.338L122.186 237.184ZM107.541 236.6L105.311 241.359L105.328 241.367L105.346 241.376L107.541 236.6ZM124.421 202.138L123.786 207.355L123.792 207.355L124.421 202.138ZM129.55 219.329L125.513 215.965L125.508 215.97L129.55 219.329ZM112.851 226.193L113.024 220.94L112.751 220.931L112.479 220.95L112.851 226.193ZM124.297 210.777L129.532 210.323L129.194 206.419L125.355 205.629L124.297 210.777ZM113.704 218.461L108.739 216.738L106.963 221.857L112.133 223.476L113.704 218.461ZM109.734 221.701L109.309 221.953L114.663 230.998L115.087 230.746L109.734 221.701ZM106.734 226.289C106.644 228.826 107.479 232.094 110.778 233.734C113.257 234.965 115.913 234.532 117.337 234.225C119.021 233.861 120.797 233.227 122.303 232.662C123.955 232.042 125.291 231.504 126.629 231.049L123.248 221.097C121.706 221.621 119.957 222.316 118.61 222.821C117.117 223.382 115.977 223.766 115.118 223.951C114.923 223.993 114.771 224.018 114.66 224.032C114.548 224.046 114.499 224.046 114.504 224.046C114.508 224.046 114.599 224.046 114.755 224.077C114.913 224.108 115.161 224.175 115.455 224.321C116.135 224.659 116.701 225.24 117.014 225.913C117.278 226.48 117.232 226.829 117.238 226.662L106.734 226.289ZM126.736 231.011C127.644 230.681 127.946 230.809 127.785 230.769C127.698 230.747 127.514 230.683 127.297 230.518C127.078 230.351 126.875 230.12 126.728 229.838C126.417 229.243 126.512 228.767 126.549 228.656C126.582 228.556 126.52 228.835 125.932 229.29L132.367 237.601C136.085 234.722 138.505 229.68 136.043 224.97C133.464 220.034 127.729 219.465 123.141 221.135L126.736 231.011ZM125.932 229.29C124.258 230.586 121.739 231.682 120.176 232.329L124.197 242.04C125.643 241.441 129.427 239.877 132.367 237.601L125.932 229.29ZM120.155 232.338C116.882 233.71 113.384 233.502 109.735 231.825L105.346 241.376C111.152 244.044 117.749 244.743 124.218 242.031L120.155 232.338ZM109.771 231.842C107.31 230.688 106.175 228.928 105.8 226.757C105.386 224.359 105.9 221.214 107.51 217.959C110.846 211.213 117.402 206.577 123.786 207.355L125.057 196.921C112.692 195.415 102.606 204.166 98.0883 213.3C95.7712 217.985 94.5549 223.404 95.443 228.546C96.3703 233.914 99.5704 238.669 105.311 241.359L109.771 231.842ZM123.792 207.355C125.005 207.502 125.691 207.91 126.1 208.287C126.529 208.684 126.886 209.266 127.077 210.077C127.484 211.801 127.022 214.154 125.513 215.965L133.587 222.693C137.108 218.468 138.509 212.759 137.307 207.664C136.028 202.244 131.8 197.735 125.051 196.921L123.792 207.355ZM125.508 215.97C123.628 218.233 121.932 219.4 120.216 220.06C118.426 220.749 116.207 221.045 113.024 220.94L112.678 231.445C116.592 231.574 120.378 231.26 123.991 229.869C127.678 228.45 130.783 226.068 133.592 222.687L125.508 215.97ZM112.479 220.95L112.039 220.982L112.782 231.466L113.223 231.435L112.479 220.95ZM125.355 205.629C120.977 204.729 117.057 206.825 114.594 208.801C112.035 210.854 109.77 213.769 108.739 216.738L118.669 220.184C118.924 219.448 119.823 218.081 121.171 216.999C122.616 215.84 123.35 215.947 123.238 215.924L125.355 205.629ZM112.133 223.476C116.359 224.8 120.804 223.216 123.724 221.198C126.624 219.195 129.97 215.371 129.532 210.323L119.061 211.23C119.044 211.04 119.125 211.075 118.935 211.383C118.736 211.705 118.347 212.138 117.749 212.551C117.158 212.96 116.521 213.237 115.978 213.367C115.41 213.502 115.196 213.421 115.275 213.446L112.133 223.476ZM156.367 213.592L151.883 216.332L156.856 224.468L161.079 215.919L156.367 213.592ZM162.09 204.851L165.63 208.735L165.637 208.728L162.09 204.851ZM173.78 205.35L177.563 201.702L177.555 201.694L177.548 201.686L173.78 205.35ZM181.643 225.739L186.606 224.013L186.606 224.011L181.643 225.739ZM173.708 232.424L176.307 227.856L176.258 227.828L176.209 227.802L173.708 232.424ZM167.928 219.557L162.771 220.569L162.772 220.577L162.774 220.585L167.928 219.557ZM162.664 220.226L157.432 219.731L157.43 219.754L157.428 219.778L162.664 220.226ZM156.688 232.672L156.872 237.924L156.907 237.923L156.943 237.921L156.688 232.672ZM152.495 229.724L147.569 231.554L147.581 231.587L147.594 231.621L152.495 229.724ZM150.256 221.032L155.435 220.14L155.419 220.048L155.4 219.955L150.256 221.032ZM147.473 221.303L142.277 220.515L142.273 220.538L142.27 220.561L147.473 221.303ZM145.438 234.208L150.364 236.039L150.371 236.018L150.379 235.997L145.438 234.208ZM137.077 233.842L131.897 234.726L131.898 234.734L131.899 234.742L137.077 233.842ZM144.524 205.728L144.897 200.486L144.868 200.484L144.838 200.482L144.524 205.728ZM148.113 209.53L143.175 211.328L144.691 215.493L149.052 214.701L148.113 209.53ZM161.079 215.919C162.73 212.576 163.866 210.343 165.63 208.735L158.55 200.967C155.05 204.157 153.1 208.339 151.655 211.264L161.079 215.919ZM165.637 208.728C166.568 207.877 167.297 207.746 167.759 207.77C168.258 207.795 169.065 208.039 170.011 209.013L177.548 201.686C175.073 199.141 171.871 197.456 168.298 197.273C164.688 197.087 161.284 198.466 158.543 200.973L165.637 208.728ZM169.996 208.997C171.284 210.333 172.433 212.82 173.556 216.514C174.093 218.279 174.561 220.086 175.064 221.974C175.549 223.798 176.074 225.727 176.68 227.467L186.606 224.011C186.146 222.692 185.713 221.122 185.221 219.272C184.746 217.485 184.217 215.445 183.612 213.455C182.451 209.64 180.733 204.991 177.563 201.702L169.996 208.997ZM176.679 227.466C176.756 227.688 176.779 227.848 176.784 227.947C176.79 228.045 176.778 228.099 176.774 228.118C176.766 228.148 176.768 228.12 176.81 228.085C176.851 228.05 176.885 228.048 176.869 228.049C176.857 228.05 176.81 228.052 176.725 228.032C176.64 228.012 176.499 227.965 176.307 227.856L171.11 236.992C175.309 239.381 180.157 238.994 183.562 236.14C186.968 233.284 188.195 228.581 186.606 224.013L176.679 227.466ZM176.209 227.802C176.245 227.821 175.633 227.423 174.848 225.368C174.129 223.485 173.598 221.121 173.081 218.529L162.774 220.585C163.287 223.157 163.959 226.314 165.029 229.117C166.033 231.747 167.796 235.201 171.207 237.046L176.209 227.802ZM173.085 218.545C172.708 216.626 172.144 214.78 171.351 213.253C170.957 212.495 170.412 211.632 169.654 210.87C168.924 210.135 167.647 209.15 165.817 208.911C163.786 208.646 162.063 209.42 160.899 210.441C159.855 211.358 159.234 212.469 158.853 213.336C158.085 215.082 157.663 217.294 157.432 219.731L167.896 220.721C168.087 218.702 168.375 217.794 168.474 217.567C168.527 217.448 168.38 217.86 167.832 218.341C167.164 218.927 165.96 219.53 164.455 219.333C163.151 219.163 162.406 218.487 162.198 218.278C161.964 218.042 161.932 217.922 162.025 218.101C162.206 218.449 162.512 219.252 162.771 220.569L173.085 218.545ZM157.428 219.778C157.105 223.559 156.507 225.891 155.914 227.135C155.354 228.312 155.378 227.474 156.432 227.423L156.943 237.921C161.305 237.709 163.975 234.656 165.404 231.654C166.802 228.718 167.538 224.907 167.901 220.674L157.428 219.778ZM156.503 227.42C156.501 227.42 156.524 227.419 156.568 227.425C156.612 227.43 156.673 227.441 156.746 227.462C156.9 227.508 157.057 227.584 157.195 227.685C157.474 227.89 157.479 228.04 157.396 227.827L147.594 231.621C148.234 233.275 149.306 234.936 150.985 236.165C152.713 237.431 154.76 237.999 156.872 237.924L156.503 227.42ZM157.422 227.895C156.481 225.359 155.906 222.871 155.435 220.14L145.077 221.924C145.611 225.022 146.322 228.196 147.569 231.554L157.422 227.895ZM155.4 219.955C155.204 219.019 154.938 217.977 154.586 217.039C154.413 216.577 154.165 215.997 153.817 215.42C153.544 214.968 152.839 213.881 151.51 213.141C150.755 212.72 149.73 212.377 148.521 212.433C147.306 212.49 146.299 212.93 145.56 213.448C144.264 214.355 143.656 215.579 143.407 216.128C142.841 217.38 142.514 218.948 142.277 220.515L152.669 222.091C152.883 220.676 153.047 220.319 152.983 220.461C152.95 220.534 152.857 220.73 152.678 220.984C152.507 221.226 152.163 221.656 151.589 222.058C150.977 222.486 150.097 222.882 149.008 222.932C147.925 222.983 147.026 222.674 146.395 222.322C145.316 221.721 144.857 220.916 144.823 220.859C144.713 220.678 144.698 220.605 144.746 220.733C144.837 220.976 144.974 221.446 145.112 222.109L155.4 219.955ZM142.27 220.561C142.004 222.429 141.737 225.325 141.499 227.26C141.213 229.572 140.892 231.325 140.496 232.418L150.379 235.997C151.216 233.684 151.642 230.884 151.93 228.546C152.265 225.83 152.4 223.978 152.675 222.045L142.27 220.561ZM140.511 232.377C140.537 232.308 140.634 232.158 140.805 232.052C140.941 231.967 141.066 231.944 141.175 231.949C141.283 231.953 141.513 231.993 141.775 232.203C142.084 232.453 142.225 232.774 142.254 232.942L131.899 234.742C132.761 239.697 136.859 242.289 140.739 242.45C144.553 242.609 148.708 240.493 150.364 236.039L140.511 232.377ZM142.257 232.958C141.948 231.147 141.904 224.639 142.905 218.53C143.402 215.499 144.082 213.072 144.838 211.568C145.74 209.773 145.726 211.064 144.21 210.974L144.838 200.482C139.656 200.172 136.767 204.222 135.447 206.848C133.981 209.766 133.092 213.424 132.533 216.83C131.424 223.594 131.322 231.362 131.897 234.726L142.257 232.958ZM144.151 210.97C144.276 210.979 144.042 210.982 143.657 210.782C143.465 210.683 143.277 210.554 143.105 210.4C142.936 210.249 142.815 210.103 142.736 209.992C142.601 209.802 142.596 209.722 142.704 210.002C142.754 210.131 142.809 210.287 142.891 210.522C142.965 210.734 143.066 211.03 143.175 211.328L153.051 207.733C152.987 207.557 152.675 206.646 152.512 206.224C152.283 205.63 151.914 204.761 151.297 203.895C149.762 201.739 147.494 200.671 144.897 200.486L144.151 210.97ZM149.052 214.701C151.195 214.311 151.105 214.66 150.614 214.399C150.409 214.291 150.419 214.223 150.662 214.517C150.934 214.846 151.3 215.379 151.883 216.332L160.851 210.851C159.728 209.013 158.17 206.512 155.547 205.118C152.698 203.604 149.691 203.902 147.173 204.359L149.052 214.701ZM190.54 233.369L187.315 237.518L187.316 237.52L190.54 233.369ZM184.843 221.677L190.097 221.547L190.096 221.53L190.096 221.512L184.843 221.677ZM190.229 206.101L186.26 202.657L186.243 202.675L186.228 202.694L190.229 206.101ZM194.12 202.727L190.151 199.283L190.099 199.343L190.048 199.405L194.12 202.727ZM196.675 198.194L192.544 194.946L192.527 194.967L192.51 194.989L196.675 198.194ZM213.36 198.412L209.382 201.845L209.392 201.858L209.403 201.87L213.36 198.412ZM198.67 224.237L194.987 227.986L195.491 228.48L196.106 228.824L198.67 224.237ZM204.121 205.41L203.048 210.555L203.058 210.557L204.121 205.41ZM211.657 209.154C211.794 211.097 211.332 213.986 210.125 217.244C208.939 220.446 207.178 223.613 205.111 226.101C203 228.644 200.895 230.098 199.121 230.595C197.645 231.009 195.945 230.913 193.764 229.219L187.316 237.52C191.965 241.131 197.079 242.083 201.957 240.716C206.536 239.433 210.323 236.278 213.198 232.815C216.117 229.299 218.437 225.063 219.981 220.896C221.503 216.785 222.419 212.339 222.141 208.41L211.657 209.154ZM193.766 229.221C191.319 227.318 190.18 224.934 190.097 221.547L179.589 221.807C179.742 227.992 182.112 233.473 187.315 237.518L193.766 229.221ZM190.096 221.512C189.96 217.182 191.494 212.722 194.231 209.507L186.228 202.694C181.747 207.958 179.375 214.985 179.59 221.842L190.096 221.512ZM194.199 209.544C194.328 209.396 194.53 209.224 195.32 208.642C195.945 208.182 197.167 207.306 198.192 206.049L190.048 199.405C189.988 199.478 189.844 199.622 189.085 200.181C188.49 200.619 187.29 201.469 186.26 202.657L194.199 209.544ZM198.09 206.171C199.233 204.853 199.874 203.405 200.213 202.658C200.644 201.709 200.745 201.523 200.84 201.399L192.51 194.989C191.525 196.269 190.929 197.682 190.642 198.314C190.463 198.709 190.357 198.93 190.26 199.105C190.173 199.262 190.137 199.299 190.151 199.283L198.09 206.171ZM200.807 201.442C201.533 200.519 202.913 199.84 204.831 199.905C206.78 199.971 208.48 200.8 209.382 201.845L217.339 194.979C214.223 191.367 209.576 189.549 205.185 189.4C200.763 189.251 195.81 190.791 192.544 194.946L200.807 201.442ZM209.403 201.87C210.729 203.387 211.418 205.788 211.657 209.154L222.141 208.41C221.859 204.437 220.969 199.132 217.318 194.954L209.403 201.87ZM196.106 228.824C198.474 230.147 200.913 229.841 202.699 229.048C204.331 228.322 205.607 227.143 206.531 226.091C208.415 223.946 209.963 221.029 210.988 218.183C211.999 215.376 212.739 211.978 212.407 208.839C212.237 207.236 211.752 205.373 210.557 203.713C209.279 201.938 207.417 200.725 205.183 200.264L203.058 210.557C202.752 210.494 202.312 210.25 202.028 209.855C201.826 209.575 201.908 209.504 201.954 209.945C202.055 210.894 201.829 212.594 201.099 214.622C200.383 216.611 199.415 218.266 198.634 219.156C198.225 219.622 198.13 219.576 198.432 219.442C198.888 219.24 200.038 218.981 201.234 219.649L196.106 228.824ZM205.193 200.266C200.84 199.358 197.794 202.313 196.4 204.122C194.799 206.199 193.639 208.858 192.894 211.412C192.138 214 191.689 216.894 191.792 219.607C191.887 222.1 192.494 225.537 194.987 227.986L202.353 220.488C202.745 220.873 202.356 220.794 202.295 219.206C202.243 217.84 202.478 216.089 202.983 214.356C203.499 212.588 204.176 211.249 204.724 210.539C205.478 209.561 204.893 210.94 203.048 210.555L205.193 200.266ZM231.199 223.995L225.944 223.978L225.933 227.473L229.151 228.835L231.199 223.995ZM225.571 231.991L228.549 227.661L228.545 227.659L225.571 231.991ZM226.903 198.779L225.662 193.673L225.658 193.673L226.903 198.779ZM231.223 218.093L225.987 217.651L225.985 217.671L225.983 217.692L231.223 218.093ZM224.197 190.784L218.946 190.99L218.947 191.01L218.948 191.029L224.197 190.784ZM229.151 228.835C229.66 229.05 229.809 229.209 229.786 229.186C229.747 229.146 229.592 228.96 229.502 228.624C229.313 227.909 229.631 227.531 229.572 227.606C229.516 227.678 229.348 227.804 229.148 227.843C229.072 227.858 229.004 227.858 228.936 227.844C228.873 227.832 228.744 227.795 228.549 227.661L222.593 236.322C228.281 240.233 234.743 238.038 237.838 234.098C239.428 232.073 240.509 229.12 239.661 225.928C238.795 222.663 236.261 220.431 233.248 219.155L229.151 228.835ZM228.545 227.659C227.987 227.275 227.022 226.06 226.317 223.317C225.651 220.726 225.413 217.494 225.622 214.229C225.833 210.953 226.474 207.981 227.326 205.888C227.752 204.841 228.157 204.199 228.438 203.866C228.724 203.527 228.66 203.76 228.148 203.885L225.658 193.673C223.334 194.24 221.607 195.663 220.404 197.09C219.195 198.523 218.284 200.223 217.592 201.924C216.206 205.326 215.396 209.468 215.134 213.555C214.87 217.654 215.135 222.034 216.137 225.933C217.1 229.68 218.968 233.833 222.596 236.324L228.545 227.659ZM228.145 203.886C228.682 203.755 228.602 203.889 228.189 203.755C227.691 203.593 227.357 203.257 227.224 203.055C227.18 202.989 227.516 203.645 227.494 205.74C227.474 207.595 227.196 209.76 226.852 211.927C226.553 213.82 226.108 216.211 225.987 217.651L236.46 218.535C236.539 217.599 236.833 216.103 237.234 213.571C237.591 211.314 237.975 208.517 238.003 205.852C238.029 203.425 237.799 200 235.999 197.27C234.988 195.736 233.478 194.421 231.435 193.758C229.476 193.122 227.481 193.23 225.662 193.673L228.145 203.886ZM225.983 217.692C225.813 219.921 225.949 222.516 225.944 223.978L236.455 224.011C236.463 221.49 236.328 220.269 236.463 218.493L225.983 217.692ZM227.947 187.936C227.969 188.253 227.889 188.427 227.788 188.564C227.646 188.758 227.442 188.883 227.323 188.922C227.14 188.983 227.588 188.763 228.335 189.177C228.739 189.401 229.067 189.736 229.27 190.098C229.46 190.437 229.452 190.639 229.447 190.538L218.948 191.029C219.087 193.998 220.448 196.823 223.241 198.37C225.773 199.773 228.537 199.592 230.624 198.901C234.79 197.523 238.86 193.24 238.431 187.193L227.947 187.936ZM229.449 190.577C229.389 189.052 229.731 188.52 229.745 188.499C229.753 188.487 229.71 188.552 229.591 188.627C229.476 188.7 229.334 188.755 229.181 188.778C228.893 188.82 228.596 188.748 228.347 188.556C228.216 188.454 228.108 188.326 228.034 188.187C227.999 188.12 227.976 188.059 227.962 188.011C227.956 187.988 227.952 187.969 227.949 187.956C227.947 187.943 227.947 187.936 227.947 187.936L238.431 187.193C238.004 181.175 232.73 177.622 227.633 178.382C225.03 178.769 222.644 180.237 221.038 182.612C219.463 184.942 218.822 187.845 218.946 190.99L229.449 190.577ZM252.405 199.11L247.163 199.481L247.692 206.94L254.53 203.916L252.405 199.11ZM267.215 194.74L269.227 189.885L269.167 189.86L269.106 189.837L267.215 194.74ZM269.939 198.825L275.144 199.554L275.151 199.502L275.157 199.45L269.939 198.825ZM249.841 220.165L255.054 220.829L255.056 220.814L255.058 220.8L249.841 220.165ZM245.936 229.588L244.838 224.449L244.822 224.452L244.806 224.456L245.936 229.588ZM254.53 203.916C256.849 202.891 258.94 201.74 261.644 200.699C262.884 200.223 263.92 199.913 264.72 199.776C265.607 199.625 265.676 199.779 265.324 199.643L269.106 189.837C266.897 188.985 264.633 189.129 262.953 189.415C261.186 189.717 259.422 190.293 257.871 190.89C254.992 191.997 251.537 193.747 250.279 194.303L254.53 203.916ZM265.204 199.595C265.312 199.64 265.201 199.63 265.032 199.396C264.939 199.268 264.839 199.082 264.775 198.845C264.709 198.602 264.7 198.376 264.721 198.2L275.157 199.45C275.763 194.389 272.242 191.134 269.227 189.885L265.204 199.595ZM264.735 198.096C264.908 196.858 265.638 196.24 265.708 196.184C265.717 196.176 265.493 196.34 264.699 196.695C263.533 197.217 260.516 198.348 258.031 199.663C255.28 201.12 252.218 203.219 249.679 206.501C247.112 209.819 245.288 214.077 244.624 219.53L255.058 220.8C255.513 217.065 256.68 214.629 257.993 212.932C259.332 211.201 261.036 209.965 262.949 208.952C265.13 207.798 266.679 207.324 268.991 206.289C269.936 205.867 271.179 205.264 272.261 204.402C273.403 203.491 274.811 201.927 275.144 199.554L264.735 198.096ZM244.628 219.502C244.478 220.682 244.47 221.99 244.451 222.786C244.428 223.755 244.391 224.347 244.308 224.787C244.23 225.204 244.176 225.088 244.393 224.825C244.686 224.469 244.986 224.417 244.838 224.449L247.035 234.727C249.212 234.262 251.109 233.202 252.504 231.51C253.822 229.91 254.374 228.128 254.637 226.733C254.896 225.36 254.936 223.992 254.959 223.035C254.986 221.906 254.992 221.323 255.054 220.829L244.628 219.502ZM244.806 224.456C244.592 224.503 244.863 224.434 245.136 224.631C245.226 224.696 244.92 224.505 244.539 223.505C243.763 221.465 243.409 217.979 243.764 213.848C244.112 209.803 245.083 205.814 246.383 202.959C247.036 201.526 247.667 200.613 248.148 200.118C248.621 199.63 248.638 199.851 248.182 199.883L247.438 189.399C244.505 189.607 242.219 191.136 240.609 192.794C239.005 194.445 237.77 196.513 236.819 198.601C234.91 202.79 233.717 208.004 233.292 212.948C232.874 217.806 233.138 223.095 234.716 227.243C235.512 229.336 236.817 231.593 238.995 233.161C241.358 234.862 244.195 235.353 247.067 234.72L244.806 224.456ZM248.182 199.883C248.277 199.876 248.165 199.9 247.933 199.815C247.69 199.726 247.463 199.572 247.295 199.391C247.14 199.225 247.097 199.105 247.101 199.117C247.108 199.134 247.146 199.248 247.163 199.481L257.647 198.738C257.497 196.623 256.799 194.171 254.98 192.222C253.017 190.117 250.301 189.196 247.438 189.399L248.182 199.883ZM286.353 213.888L285.981 208.646L284.743 208.733L283.676 209.365L286.353 213.888ZM285.928 214.139L283.251 209.617L280.778 211.081L280.676 213.953L285.928 214.139ZM298.881 213.737L300.571 218.713L300.625 218.694L300.678 218.675L298.881 213.737ZM303.092 221.109L299.875 216.954L303.092 221.109ZM296.129 224.848L294.118 219.993L294.107 219.997L294.097 220.002L296.129 224.848ZM281.483 224.264L279.253 229.023L279.27 229.031L279.288 229.039L281.483 224.264ZM298.364 189.802L297.728 195.019L297.734 195.019L298.364 189.802ZM303.492 206.993L299.455 203.628L299.45 203.634L303.492 206.993ZM286.793 213.856L286.966 208.604L286.693 208.595L286.421 208.614L286.793 213.856ZM298.239 198.441L303.474 197.987L303.136 194.083L299.297 193.293L298.239 198.441ZM287.646 206.125L282.681 204.402L280.905 209.521L286.075 211.14L287.646 206.125ZM283.676 209.365L283.251 209.617L288.605 218.662L289.029 218.41L283.676 209.365ZM280.676 213.953C280.586 216.49 281.421 219.758 284.72 221.397C287.199 222.629 289.855 222.196 291.279 221.889C292.963 221.525 294.739 220.891 296.245 220.326C297.897 219.706 299.233 219.168 300.571 218.713L297.19 208.761C295.648 209.285 293.899 209.98 292.552 210.485C291.059 211.046 289.919 211.429 289.061 211.615C288.865 211.657 288.714 211.682 288.602 211.696C288.49 211.71 288.441 211.71 288.446 211.71C288.45 211.71 288.541 211.71 288.697 211.741C288.855 211.772 289.103 211.839 289.397 211.985C290.077 212.323 290.643 212.903 290.956 213.577C291.22 214.144 291.174 214.493 291.18 214.325L280.676 213.953ZM300.678 218.675C301.586 218.345 301.888 218.473 301.727 218.433C301.64 218.411 301.457 218.346 301.24 218.182C301.02 218.015 300.817 217.784 300.67 217.502C300.359 216.906 300.454 216.431 300.491 216.32C300.524 216.22 300.462 216.498 299.875 216.954L306.309 225.265C310.028 222.386 312.447 217.344 309.986 212.634C307.406 207.698 301.671 207.128 297.083 208.799L300.678 218.675ZM299.875 216.954C298.2 218.25 295.681 219.346 294.118 219.993L298.139 229.704C299.586 229.105 303.369 227.541 306.309 225.265L299.875 216.954ZM294.097 220.002C290.824 221.373 287.326 221.166 283.677 219.489L279.288 229.039C285.094 231.708 291.691 232.407 298.16 229.695L294.097 220.002ZM283.713 219.506C281.252 218.352 280.117 216.592 279.742 214.421C279.328 212.023 279.842 208.878 281.452 205.623C284.788 198.877 291.344 194.241 297.728 195.019L298.999 184.585C286.634 183.079 276.548 191.83 272.03 200.964C269.713 205.649 268.497 211.068 269.385 216.21C270.312 221.578 273.512 226.333 279.253 229.023L283.713 219.506ZM297.734 195.019C298.947 195.166 299.633 195.574 300.042 195.951C300.471 196.348 300.828 196.93 301.019 197.741C301.426 199.465 300.964 201.818 299.455 203.628L307.529 210.357C311.05 206.132 312.451 200.423 311.249 195.328C309.97 189.908 305.742 185.399 298.993 184.584L297.734 195.019ZM299.45 203.634C297.57 205.897 295.874 207.063 294.158 207.724C292.368 208.413 290.149 208.709 286.966 208.604L286.62 219.109C290.534 219.238 294.32 218.924 297.933 217.533C301.62 216.114 304.725 213.732 307.534 210.351L299.45 203.634ZM286.421 208.614L285.981 208.646L286.724 219.13L287.165 219.099L286.421 208.614ZM299.297 193.293C294.919 192.392 290.999 194.489 288.536 196.465C285.977 198.518 283.712 201.433 282.681 204.402L292.611 207.848C292.866 207.112 293.765 205.745 295.113 204.663C296.558 203.504 297.292 203.611 297.18 203.588L299.297 193.293ZM286.075 211.14C290.301 212.464 294.746 210.88 297.666 208.862C300.566 206.859 303.912 203.035 303.474 197.987L293.003 198.894C292.986 198.704 293.067 198.739 292.877 199.047C292.678 199.368 292.289 199.802 291.691 200.215C291.1 200.623 290.463 200.901 289.92 201.031C289.352 201.166 289.138 201.085 289.217 201.11L286.075 211.14Z" fill="#FFC34E" mask="url(#path-39-outside-2_45_1060)"/>
<defs>
<linearGradient id="paint0_linear_45_1060" x1="260.326" y1="161.224" x2="136.093" y2="166.944" gradientUnits="userSpaceOnUse">
<stop stop-color="#F3F0EB" stop-opacity="0"/>
<stop offset="0.505" stop-color="#F3F0EB"/>
<stop offset="1" stop-color="#F3F0EB" stop-opacity="0"/>
</linearGradient>
</defs>
</svg>
